<?xml version="1.0" encoding="UTF-8" standalone="no"?>
<!-- Created with Inkscape (http://www.inkscape.org/) -->

<svg
   xmlns:dc="http://purl.org/dc/elements/1.1/"
   xmlns:cc="http://creativecommons.org/ns#"
   xmlns:rdf="http://www.w3.org/1999/02/22-rdf-syntax-ns#"
   xmlns:svg="http://www.w3.org/2000/svg"
   xmlns="http://www.w3.org/2000/svg"
   xmlns:sodipodi="http://sodipodi.sourceforge.net/DTD/sodipodi-0.dtd"
   xmlns:inkscape="http://www.inkscape.org/namespaces/inkscape"
   version="1.1"
   id="svg2"
   xml:space="preserve"
   width="120"
   height="120"
   viewBox="0 0 120 120"
   sodipodi:docname="cruzCurvas120x120.svg"
   inkscape:version="0.92.4 (5da689c313, 2019-01-14)"
   inkscape:export-filename="/home/jack/bitmap.png"
   inkscape:export-xdpi="62.470001"
   inkscape:export-ydpi="62.470001"><metadata
     id="metadata8"><rdf:RDF><cc:Work
         rdf:about=""><dc:format>image/svg+xml</dc:format><dc:type
           rdf:resource="http://purl.org/dc/dcmitype/StillImage" /><dc:title></dc:title></cc:Work></rdf:RDF></metadata><defs
     id="defs6"><clipPath
   clipPathUnits="userSpaceOnUse"
   id="clipPath18"><path
     d="M 0,0 H 155.883 V 149.359 H 0 Z"
     id="path16"
     inkscape:connector-curvature="0" /></clipPath>
</defs><sodipodi:namedview
     pagecolor="#ffffff"
     bordercolor="#666666"
     borderopacity="1"
     objecttolerance="10"
     gridtolerance="10"
     guidetolerance="10"
     inkscape:pageopacity="0"
     inkscape:pageshadow="2"
     inkscape:window-width="1366"
     inkscape:window-height="739"
     id="namedview4"
     showgrid="false"
     inkscape:zoom="1.6759339"
     inkscape:cx="119.07066"
     inkscape:cy="120.57846"
     inkscape:window-x="1920"
     inkscape:window-y="0"
     inkscape:window-maximized="1"
     inkscape:current-layer="g1462"
     fit-margin-top="0"
     fit-margin-left="0"
     fit-margin-right="0"
     fit-margin-bottom="0" /><g
     id="g10"
     inkscape:groupmode="layer"
     inkscape:label="cruz"
     transform="matrix(1.3333333,0,0,-1.3333333,34.443615,136.14402)">
<g
   id="g1462"
   transform="matrix(1.0468744,0,0,1.0468744,-33.263531,8.6952082)"><g
   id="g1074"
   transform="matrix(0.60656874,0,0,0.60656874,2.7926144,1.2825859)"><g
   id="g12"><g
     id="g14"
     clip-path="url(#clipPath18)"><g
       id="g20"
       transform="translate(148.8301,74.126)"><path
         d="m 0,0 c 0,-39.138 -31.729,-70.866 -70.866,-70.866 -39.139,0 -70.866,31.728 -70.866,70.866 0,39.138 31.727,70.866 70.866,70.866 C -31.729,70.866 0,39.138 0,0"
         style="fill:#181d16;fill-opacity:1;fill-rule:nonzero;stroke:none"
         id="path22"
         inkscape:connector-curvature="0" /></g><g
       id="g24"
       transform="translate(119.4951,75.126)"><path
         d="m 0,0 c 0,-22.937 -18.595,-41.531 -41.531,-41.531 -22.937,0 -41.532,18.594 -41.532,41.531 0,22.937 18.595,41.531 41.532,41.531 C -18.595,41.531 0,22.937 0,0 Z"
         style="fill:none;stroke:#94d36b;stroke-width:6;stroke-linecap:butt;stroke-linejoin:miter;stroke-miterlimit:10;stroke-dasharray:none;stroke-opacity:1"
         id="path26"
         inkscape:connector-curvature="0" /></g><g
       id="g28"
       transform="translate(77.9639,115.1572)"><path
         d="m 0,0 c -22.074,0 -40.032,-17.958 -40.032,-40.031 0,-22.073 17.958,-40.032 40.032,-40.032 22.073,0 40.031,17.959 40.031,40.032 C 40.031,-17.958 22.073,0 0,0 m 0,-83.063 c -23.728,0 -43.032,19.304 -43.032,43.032 C -43.032,-16.304 -23.728,3 0,3 23.728,3 43.031,-16.304 43.031,-40.031 43.031,-63.759 23.728,-83.063 0,-83.063"
         style="fill:#67c530;fill-opacity:1;fill-rule:nonzero;stroke:none"
         id="path30"
         inkscape:connector-curvature="0" /></g><g
       id="g32"
       transform="translate(77.9639,115.1572)"><path
         d="m 0,0 c -22.074,0 -40.032,-17.958 -40.032,-40.031 0,-22.073 17.958,-40.032 40.032,-40.032 22.073,0 40.031,17.959 40.031,40.032 C 40.031,-17.958 22.073,0 0,0 Z m 0,-83.063 c -23.728,0 -43.032,19.304 -43.032,43.032 C -43.032,-16.304 -23.728,3 0,3 23.728,3 43.031,-16.304 43.031,-40.031 43.031,-63.759 23.728,-83.063 0,-83.063 Z"
         style="fill:none;stroke:#ffffff;stroke-width:0.5;stroke-linecap:butt;stroke-linejoin:miter;stroke-miterlimit:10;stroke-dasharray:none;stroke-opacity:1"
         id="path34"
         inkscape:connector-curvature="0" /></g><g
       id="g36"
       transform="translate(78.876,67.7002)"><path
         d="m 0,0 c -0.299,-3.738 -0.532,-7.129 -0.853,-10.514 -0.484,-5.158 -1.159,-10.288 -3.371,-15.057 -0.785,-1.696 -2.006,-2.815 -4.062,-2.748 -2.532,0.081 -3.926,2.168 -2.3,4.059 5.484,6.383 5.379,14.413 6.936,21.965 0.197,0.958 0.324,1.93 0.103,3.038 -1.074,-1.946 -2.12,-3.91 -3.227,-5.837 -2.912,-5.071 -6.846,-9.007 -12.644,-10.541 -4.338,-1.148 -8.194,-0.036 -11.027,3.546 -2.64,3.337 -3.268,7.058 -1.095,10.903 0.676,1.197 1.726,2.181 2.681,3.357 -2.708,0.719 -5.305,1.876 -6.595,4.583 -2.317,4.861 -0.992,12.512 5.711,14.872 4.762,1.677 9.267,0.57 13.678,-1.357 0.835,-0.365 1.642,-0.794 2.358,-1.143 -1.274,2.959 -2.947,5.771 -3.681,8.81 -1.001,4.142 -1.254,8.437 2.172,11.929 4.494,4.582 13.042,4.842 16.351,-2.004 0.167,-0.346 0.42,-0.651 0.689,-1.061 0.855,0.911 1.558,1.814 2.41,2.54 2.986,2.544 6.374,2.715 9.842,1.276 3.84,-1.593 6.161,-4.498 6.464,-8.715 C 20.947,26.209 18.193,21.839 14.396,17.964 14.069,17.629 13.702,17.333 13.372,17 c -0.08,-0.08 -0.084,-0.234 0.006,0.044 3.571,0.182 7.308,0.746 10.986,0.486 8.463,-0.599 13.154,-10.059 8.46,-16.644 -1.856,-2.604 -4.601,-3.532 -7.242,-3.888 0.626,-2.323 1.673,-4.583 1.77,-6.884 0.252,-5.943 -5.794,-10.83 -11.674,-9.82 C 8.826,-18.528 5.354,-13.613 2.716,-7.898 1.61,-5.503 0.977,-2.892 0,0"
         style="fill:#67c534;fill-opacity:1;fill-rule:nonzero;stroke:none"
         id="path38"
         inkscape:connector-curvature="0" /></g><g
       id="g40"
       transform="translate(78.876,67.7002)"><path
         d="m 0,0 c -0.299,-3.738 -0.532,-7.129 -0.853,-10.514 -0.484,-5.158 -1.159,-10.288 -3.371,-15.057 -0.785,-1.696 -2.006,-2.815 -4.062,-2.748 -2.532,0.081 -3.926,2.168 -2.3,4.059 5.484,6.383 5.379,14.413 6.936,21.965 0.197,0.958 0.324,1.93 0.103,3.038 -1.074,-1.946 -2.12,-3.91 -3.227,-5.837 -2.912,-5.071 -6.846,-9.007 -12.644,-10.541 -4.338,-1.148 -8.194,-0.036 -11.027,3.546 -2.64,3.337 -3.268,7.058 -1.095,10.903 0.676,1.197 1.726,2.181 2.681,3.357 -2.708,0.719 -5.305,1.876 -6.595,4.583 -2.317,4.861 -0.992,12.512 5.711,14.872 4.762,1.677 9.267,0.57 13.678,-1.357 0.835,-0.365 1.642,-0.794 2.358,-1.143 -1.274,2.959 -2.947,5.771 -3.681,8.81 -1.001,4.142 -1.254,8.437 2.172,11.929 4.494,4.582 13.042,4.842 16.351,-2.004 0.167,-0.346 0.42,-0.651 0.689,-1.061 0.855,0.911 1.558,1.814 2.41,2.54 2.986,2.544 6.374,2.715 9.842,1.276 3.84,-1.593 6.161,-4.498 6.464,-8.715 C 20.947,26.209 18.193,21.839 14.396,17.964 14.069,17.629 13.702,17.333 13.372,17 c -0.08,-0.08 -0.084,-0.234 0.006,0.044 3.571,0.182 7.308,0.746 10.986,0.486 8.463,-0.599 13.154,-10.059 8.46,-16.644 -1.856,-2.604 -4.601,-3.532 -7.242,-3.888 0.626,-2.323 1.673,-4.583 1.77,-6.884 0.252,-5.943 -5.794,-10.83 -11.674,-9.82 C 8.826,-18.528 5.354,-13.613 2.716,-7.898 1.61,-5.503 0.977,-2.892 0,0 Z"
         style="fill:none;stroke:#ffffff;stroke-width:0.5;stroke-linecap:butt;stroke-linejoin:miter;stroke-miterlimit:10;stroke-dasharray:none;stroke-opacity:1"
         id="path42"
         inkscape:connector-curvature="0" /></g><g
       id="g44"
       transform="translate(27.5386,75.2764)"><path
         d="m 0,0 c -0.344,0.001 -0.516,0.001 -0.86,0.002 0.002,0.583 0.006,0.873 0.019,1.448 L -5.455,1.594 C -5.47,0.967 -5.474,0.652 -5.476,0.017 l -0.859,0.002 c 0.005,2.382 0.056,3.542 0.244,5.798 0.342,-0.036 0.513,-0.054 0.856,-0.09 -0.055,-0.654 -0.078,-0.984 -0.118,-1.648 1.843,-0.14 2.764,-0.21 4.606,-0.35 0.07,1.193 0.119,1.78 0.243,2.935 -0.405,0.054 -0.607,0.081 -1.011,0.135 0.084,0.787 0.132,1.176 0.24,1.946 C -0.533,8.618 -0.161,8.554 0.581,8.426 0.131,5.21 0.008,3.525 0,0"
         style="fill:#67c534;fill-opacity:1;fill-rule:nonzero;stroke:none"
         id="path46"
         inkscape:connector-curvature="0" /></g><g
       id="g48"
       transform="translate(27.5386,75.2764)"><path
         d="m 0,0 c -0.344,0.001 -0.516,0.001 -0.86,0.002 0.002,0.583 0.006,0.873 0.019,1.448 L -5.455,1.594 C -5.47,0.967 -5.474,0.652 -5.476,0.017 l -0.859,0.002 c 0.005,2.382 0.056,3.542 0.244,5.798 0.342,-0.036 0.513,-0.054 0.856,-0.09 -0.055,-0.654 -0.078,-0.984 -0.118,-1.648 1.843,-0.14 2.764,-0.21 4.606,-0.35 0.07,1.193 0.119,1.78 0.243,2.935 -0.405,0.054 -0.607,0.081 -1.011,0.135 0.084,0.787 0.132,1.176 0.24,1.946 C -0.533,8.618 -0.161,8.554 0.581,8.426 0.131,5.21 0.008,3.525 0,0 Z"
         style="fill:none;stroke:#ffffff;stroke-width:0.15000001;stroke-linecap:butt;stroke-linejoin:miter;stroke-miterlimit:10;stroke-dasharray:none;stroke-opacity:1"
         id="path50"
         inkscape:connector-curvature="0" /></g><g
       id="g52"
       transform="translate(26.791,91.8271)"><path
         d="m 0,0 c -0.964,-0.236 -1.446,-0.367 -2.409,-0.653 -0.004,-0.013 -0.006,-0.02 -0.009,-0.033 0.687,-0.793 1.036,-1.182 1.744,-1.942 C -0.427,-1.559 -0.292,-1.033 0,0 m 1.43,-7.433 c -0.339,0.063 -0.509,0.095 -0.848,0.158 0.059,0.384 0.089,0.575 0.154,0.955 -1.619,1.532 -2.407,2.341 -3.928,4.036 -0.121,-0.534 -0.178,-0.804 -0.287,-1.347 -0.336,0.08 -0.504,0.12 -0.84,0.201 0.522,2.605 0.848,3.858 1.616,6.268 C -2.376,2.72 -2.213,2.661 -1.887,2.542 -2.045,2.046 -2.122,1.796 -2.27,1.291 -0.172,1.829 0.876,2.04 2.963,2.353 3.074,2.667 3.13,2.824 3.245,3.134 3.566,3.001 3.728,2.935 4.049,2.802 3.502,1.325 3.254,0.565 2.813,-1 2.483,-0.893 2.319,-0.839 1.989,-0.732 2.122,-0.259 2.191,-0.025 2.333,0.439 1.774,0.317 1.494,0.251 0.933,0.111 0.545,-1.222 0.37,-1.904 0.061,-3.299 c 0.412,-0.439 0.62,-0.655 1.04,-1.082 0.101,0.49 0.154,0.733 0.266,1.215 L 2.202,-3.393 C 1.838,-4.967 1.683,-5.775 1.43,-7.433"
         style="fill:#67c534;fill-opacity:1;fill-rule:nonzero;stroke:none"
         id="path54"
         inkscape:connector-curvature="0" /></g><g
       id="g56"
       transform="translate(26.791,91.8271)"><path
         d="m 0,0 c -0.964,-0.236 -1.446,-0.367 -2.409,-0.653 -0.004,-0.013 -0.006,-0.02 -0.009,-0.033 0.687,-0.793 1.036,-1.182 1.744,-1.942 C -0.427,-1.559 -0.292,-1.033 0,0 Z m 1.43,-7.433 c -0.339,0.063 -0.509,0.095 -0.848,0.158 0.059,0.384 0.089,0.575 0.154,0.955 -1.619,1.532 -2.407,2.341 -3.928,4.036 -0.121,-0.534 -0.178,-0.804 -0.287,-1.347 -0.336,0.08 -0.504,0.12 -0.84,0.201 0.522,2.605 0.848,3.858 1.616,6.268 C -2.376,2.72 -2.213,2.661 -1.887,2.542 -2.045,2.046 -2.122,1.796 -2.27,1.291 -0.172,1.829 0.876,2.04 2.963,2.353 3.074,2.667 3.13,2.824 3.245,3.134 3.566,3.001 3.728,2.935 4.049,2.802 3.502,1.325 3.254,0.565 2.813,-1 2.483,-0.893 2.319,-0.839 1.989,-0.732 2.122,-0.259 2.191,-0.025 2.333,0.439 1.774,0.317 1.494,0.251 0.933,0.111 0.545,-1.222 0.37,-1.904 0.061,-3.299 c 0.412,-0.439 0.62,-0.655 1.04,-1.082 0.101,0.49 0.154,0.733 0.266,1.215 L 2.202,-3.393 C 1.838,-4.967 1.683,-5.775 1.43,-7.433 Z"
         style="fill:none;stroke:#ffffff;stroke-width:0.15000001;stroke-linecap:butt;stroke-linejoin:miter;stroke-miterlimit:10;stroke-dasharray:none;stroke-opacity:1"
         id="path58"
         inkscape:connector-curvature="0" /></g><g
       id="g60"
       transform="translate(33.0156,107.9941)"><path
         d="M 0,0 C -0.185,0.049 -0.39,0.039 -0.616,-0.035 -0.841,-0.107 -1.068,-0.229 -1.294,-0.389 -1.495,-0.53 -1.697,-0.698 -1.891,-0.894 -2.084,-1.09 -2.26,-1.302 -2.418,-1.528 -2.441,-1.564 -2.461,-1.596 -2.48,-1.626 c -0.019,-0.031 -0.038,-0.06 -0.054,-0.085 -0.618,-0.983 -0.877,-1.895 -0.795,-2.682 0.081,-0.788 0.402,-1.332 0.94,-1.637 0.532,-0.302 1.139,-0.294 1.821,-0.008 0.681,0.284 1.29,0.891 1.869,1.81 0.407,0.648 0.65,1.209 0.715,1.706 0.066,0.495 0.041,0.963 -0.079,1.408 C 2.335,-0.555 2.54,-0.28 2.956,0.26 3.388,-0.456 3.504,-1.245 3.329,-2.125 3.152,-3.004 2.771,-3.886 2.189,-4.811 1.42,-6.032 0.55,-6.931 -0.484,-7.515 -1.519,-8.1 -2.458,-8.214 -3.311,-7.771 c -0.911,0.474 -1.39,1.302 -1.383,2.487 0.007,1.186 0.299,2.361 0.873,3.477 0.062,0.112 0.123,0.223 0.188,0.339 0.063,0.114 0.129,0.225 0.195,0.331 0.062,0.097 0.191,0.283 0.39,0.552 0.198,0.267 0.431,0.537 0.699,0.805 0.157,0.156 0.321,0.303 0.492,0.439 0.172,0.138 0.342,0.247 0.509,0.327 -0.136,0.099 -0.204,0.149 -0.339,0.248 0.377,0.529 0.57,0.79 0.961,1.304 C -0.064,2.025 0.266,1.769 0.927,1.257 0.549,0.762 0.364,0.51 0,0"
         style="fill:#67c534;fill-opacity:1;fill-rule:nonzero;stroke:none"
         id="path62"
         inkscape:connector-curvature="0" /></g><g
       id="g64"
       transform="translate(33.0156,107.9941)"><path
         d="M 0,0 C -0.185,0.049 -0.39,0.039 -0.616,-0.035 -0.841,-0.107 -1.068,-0.229 -1.294,-0.389 -1.495,-0.53 -1.697,-0.698 -1.891,-0.894 -2.084,-1.09 -2.26,-1.302 -2.418,-1.528 -2.441,-1.564 -2.461,-1.596 -2.48,-1.626 c -0.019,-0.031 -0.038,-0.06 -0.054,-0.085 -0.618,-0.983 -0.877,-1.895 -0.795,-2.682 0.081,-0.788 0.402,-1.332 0.94,-1.637 0.532,-0.302 1.139,-0.294 1.821,-0.008 0.681,0.284 1.29,0.891 1.869,1.81 0.407,0.648 0.65,1.209 0.715,1.706 0.066,0.495 0.041,0.963 -0.079,1.408 C 2.335,-0.555 2.54,-0.28 2.956,0.26 3.388,-0.456 3.504,-1.245 3.329,-2.125 3.152,-3.004 2.771,-3.886 2.189,-4.811 1.42,-6.032 0.55,-6.931 -0.484,-7.515 -1.519,-8.1 -2.458,-8.214 -3.311,-7.771 c -0.911,0.474 -1.39,1.302 -1.383,2.487 0.007,1.186 0.299,2.361 0.873,3.477 0.062,0.112 0.123,0.223 0.188,0.339 0.063,0.114 0.129,0.225 0.195,0.331 0.062,0.097 0.191,0.283 0.39,0.552 0.198,0.267 0.431,0.537 0.699,0.805 0.157,0.156 0.321,0.303 0.492,0.439 0.172,0.138 0.342,0.247 0.509,0.327 -0.136,0.099 -0.204,0.149 -0.339,0.248 0.377,0.529 0.57,0.79 0.961,1.304 C -0.064,2.025 0.266,1.769 0.927,1.257 0.549,0.762 0.364,0.51 0,0 Z"
         style="fill:none;stroke:#ffffff;stroke-width:0.15000001;stroke-linecap:butt;stroke-linejoin:miter;stroke-miterlimit:10;stroke-dasharray:none;stroke-opacity:1"
         id="path66"
         inkscape:connector-curvature="0" /></g><g
       id="g68"
       transform="translate(37.3433,112.4341)"><path
         d="M 0,0 C 0.33,0.357 0.497,0.533 0.835,0.88 1.202,1.248 1.503,1.619 1.738,1.996 1.973,2.374 1.942,2.716 1.639,3.031 1.418,3.258 1.146,3.288 0.82,3.112 0.495,2.936 0.173,2.691 -0.143,2.396 -0.221,2.323 -0.303,2.247 -0.379,2.169 -0.455,2.091 -0.527,2.017 -0.597,1.944 -0.882,1.648 -1.023,1.499 -1.303,1.197 -0.782,0.718 -0.521,0.479 0,0 m 0.965,-4.688 c -0.27,0.223 -0.405,0.334 -0.676,0.557 0.269,0.329 0.406,0.492 0.682,0.815 -1.428,1.223 -2.141,1.836 -3.569,3.059 -0.3,-0.351 -0.449,-0.529 -0.743,-0.889 -0.27,0.223 -0.406,0.334 -0.676,0.557 1.2,1.469 1.831,2.171 3.146,3.506 0.025,0.017 0.049,0.037 0.07,0.058 0.021,0.021 0.042,0.043 0.063,0.064 0.157,0.158 0.35,0.344 0.583,0.56 0.232,0.214 0.49,0.41 0.767,0.58 0.218,0.133 0.452,0.248 0.698,0.343 0.245,0.095 0.496,0.148 0.753,0.162 0.026,0 0.052,10e-4 0.077,0.003 0.025,0.002 0.045,0.002 0.06,0 C 2.453,4.689 2.64,4.642 2.762,4.551 2.883,4.46 2.962,4.395 2.998,4.355 3,4.353 3.002,4.351 3.004,4.348 3.255,4.07 3.356,3.758 3.31,3.41 3.264,3.063 3.089,2.657 2.793,2.185 2.796,2.182 2.797,2.181 2.799,2.178 3.2,2.446 3.514,2.577 3.738,2.578 3.96,2.579 4.14,2.526 4.273,2.421 4.304,2.401 4.333,2.376 4.359,2.348 4.385,2.319 4.41,2.292 4.434,2.266 4.825,1.838 5.02,1.625 5.41,1.198 5.694,1.45 5.838,1.575 6.126,1.821 6.358,1.558 6.474,1.427 6.705,1.165 5.894,0.474 5.497,0.117 4.723,-0.624 4.091,0.022 3.775,0.346 3.143,0.992 2.98,1.158 2.773,1.183 2.521,1.062 2.27,0.943 2.024,0.774 1.785,0.559 1.721,0.502 1.658,0.445 1.595,0.386 1.534,0.327 1.474,0.268 1.415,0.207 1.106,-0.111 0.954,-0.272 0.651,-0.599 c 0.603,-0.553 0.905,-0.83 1.507,-1.383 0.299,0.321 0.449,0.48 0.754,0.794 L 3.544,-1.794 C 2.469,-2.9 1.952,-3.479 0.965,-4.688"
         style="fill:#67c534;fill-opacity:1;fill-rule:nonzero;stroke:none"
         id="path70"
         inkscape:connector-curvature="0" /></g><g
       id="g72"
       transform="translate(37.3433,112.4341)"><path
         d="M 0,0 C 0.33,0.357 0.497,0.533 0.835,0.88 1.202,1.248 1.503,1.619 1.738,1.996 1.973,2.374 1.942,2.716 1.639,3.031 1.418,3.258 1.146,3.288 0.82,3.112 0.495,2.936 0.173,2.691 -0.143,2.396 -0.221,2.323 -0.303,2.247 -0.379,2.169 -0.455,2.091 -0.527,2.017 -0.597,1.944 -0.882,1.648 -1.023,1.499 -1.303,1.197 -0.782,0.718 -0.521,0.479 0,0 Z m 0.965,-4.688 c -0.27,0.223 -0.405,0.334 -0.676,0.557 0.269,0.329 0.406,0.492 0.682,0.815 -1.428,1.223 -2.141,1.836 -3.569,3.059 -0.3,-0.351 -0.449,-0.529 -0.743,-0.889 -0.27,0.223 -0.406,0.334 -0.676,0.557 1.2,1.469 1.831,2.171 3.146,3.506 0.025,0.017 0.049,0.037 0.07,0.058 0.021,0.021 0.042,0.043 0.063,0.064 0.157,0.158 0.35,0.344 0.583,0.56 0.232,0.214 0.49,0.41 0.767,0.58 0.218,0.133 0.452,0.248 0.698,0.343 0.245,0.095 0.496,0.148 0.753,0.162 0.026,0 0.052,10e-4 0.077,0.003 0.025,0.002 0.045,0.002 0.06,0 C 2.453,4.689 2.64,4.642 2.762,4.551 2.883,4.46 2.962,4.395 2.998,4.355 3,4.353 3.002,4.351 3.004,4.348 3.255,4.07 3.356,3.758 3.31,3.41 3.264,3.063 3.089,2.657 2.793,2.185 2.796,2.182 2.797,2.181 2.799,2.178 3.2,2.446 3.514,2.577 3.738,2.578 3.96,2.579 4.14,2.526 4.273,2.421 4.304,2.401 4.333,2.376 4.359,2.348 4.385,2.319 4.41,2.292 4.434,2.266 4.825,1.838 5.02,1.625 5.41,1.198 5.694,1.45 5.838,1.575 6.126,1.821 6.358,1.558 6.474,1.427 6.705,1.165 5.894,0.474 5.497,0.117 4.723,-0.624 4.091,0.022 3.775,0.346 3.143,0.992 2.98,1.158 2.773,1.183 2.521,1.062 2.27,0.943 2.024,0.774 1.785,0.559 1.721,0.502 1.658,0.445 1.595,0.386 1.534,0.327 1.474,0.268 1.415,0.207 1.106,-0.111 0.954,-0.272 0.651,-0.599 c 0.603,-0.553 0.905,-0.83 1.507,-1.383 0.299,0.321 0.449,0.48 0.754,0.794 L 3.544,-1.794 C 2.469,-2.9 1.952,-3.479 0.965,-4.688 Z"
         style="fill:none;stroke:#ffffff;stroke-width:0.15000001;stroke-linecap:butt;stroke-linejoin:miter;stroke-miterlimit:10;stroke-dasharray:none;stroke-opacity:1"
         id="path74"
         inkscape:connector-curvature="0" /></g><g
       id="g76"
       transform="translate(40.4648,118.999)"><path
         d="M 0,0 C 1.295,1.064 1.963,1.569 3.333,2.524 3.54,2.243 3.644,2.103 3.851,1.821 3.475,1.56 3.288,1.426 2.918,1.156 3.63,0.229 3.986,-0.235 4.698,-1.163 4.72,-1.19 4.74,-1.217 4.758,-1.24 4.776,-1.264 4.794,-1.287 4.812,-1.311 4.831,-1.334 4.85,-1.359 4.869,-1.385 4.89,-1.411 4.91,-1.438 4.932,-1.466 5.134,-1.73 5.399,-1.917 5.721,-2.027 c 0.323,-0.111 0.821,0.078 1.515,0.546 0.633,0.426 0.946,0.787 0.928,1.105 C 8.145,-0.059 8.045,0.239 7.86,0.515 7.844,0.54 7.827,0.565 7.808,0.593 7.791,0.62 7.773,0.646 7.757,0.67 7.74,0.695 7.723,0.721 7.705,0.748 7.687,0.775 7.669,0.801 7.653,0.826 7.003,1.8 6.678,2.287 6.027,3.26 5.64,3.018 5.447,2.894 5.065,2.643 4.865,2.929 4.766,3.072 4.566,3.358 5.96,4.274 6.675,4.704 8.133,5.509 8.311,5.21 8.4,5.061 8.578,4.762 8.208,4.558 8.025,4.454 7.66,4.242 8.377,3.085 8.736,2.507 9.454,1.35 9.837,0.73 9.876,0.133 9.591,-0.441 9.305,-1.017 8.912,-1.511 8.403,-1.936 8.313,-2.008 8.226,-2.077 8.136,-2.143 8.048,-2.208 7.96,-2.271 7.873,-2.329 7.077,-2.865 6.299,-3.201 5.508,-3.335 4.717,-3.47 4.1,-3.287 3.662,-2.754 2.755,-1.652 2.301,-1.101 1.395,0 1.062,-0.262 0.896,-0.395 0.568,-0.665 0.341,-0.399 0.227,-0.266 0,0"
         style="fill:#67c534;fill-opacity:1;fill-rule:nonzero;stroke:none"
         id="path78"
         inkscape:connector-curvature="0" /></g><g
       id="g80"
       transform="translate(40.4648,118.999)"><path
         d="M 0,0 C 1.295,1.064 1.963,1.569 3.333,2.524 3.54,2.243 3.644,2.103 3.851,1.821 3.475,1.56 3.288,1.426 2.918,1.156 3.63,0.229 3.986,-0.235 4.698,-1.163 4.72,-1.19 4.74,-1.217 4.758,-1.24 4.776,-1.264 4.794,-1.287 4.812,-1.311 4.831,-1.334 4.85,-1.359 4.869,-1.385 4.89,-1.411 4.91,-1.438 4.932,-1.466 5.134,-1.73 5.399,-1.917 5.721,-2.027 c 0.323,-0.111 0.821,0.078 1.515,0.546 0.633,0.426 0.946,0.787 0.928,1.105 C 8.145,-0.059 8.045,0.239 7.86,0.515 7.844,0.54 7.827,0.565 7.808,0.593 7.791,0.62 7.773,0.646 7.757,0.67 7.74,0.695 7.723,0.721 7.705,0.748 7.687,0.775 7.669,0.801 7.653,0.826 7.003,1.8 6.678,2.287 6.027,3.26 5.64,3.018 5.447,2.894 5.065,2.643 4.865,2.929 4.766,3.072 4.566,3.358 5.96,4.274 6.675,4.704 8.133,5.509 8.311,5.21 8.4,5.061 8.578,4.762 8.208,4.558 8.025,4.454 7.66,4.242 8.377,3.085 8.736,2.507 9.454,1.35 9.837,0.73 9.876,0.133 9.591,-0.441 9.305,-1.017 8.912,-1.511 8.403,-1.936 8.313,-2.008 8.226,-2.077 8.136,-2.143 8.048,-2.208 7.96,-2.271 7.873,-2.329 7.077,-2.865 6.299,-3.201 5.508,-3.335 4.717,-3.47 4.1,-3.287 3.662,-2.754 2.755,-1.652 2.301,-1.101 1.395,0 1.062,-0.262 0.896,-0.395 0.568,-0.665 0.341,-0.399 0.227,-0.266 0,0 Z"
         style="fill:none;stroke:#ffffff;stroke-width:0.15000001;stroke-linecap:butt;stroke-linejoin:miter;stroke-miterlimit:10;stroke-dasharray:none;stroke-opacity:1"
         id="path82"
         inkscape:connector-curvature="0" /></g><g
       id="g84"
       transform="translate(53.9731,121.0571)"><path
         d="M 0,0 C 1.133,0.545 1.708,0.8 2.873,1.276 2.692,1.68 2.602,1.882 2.421,2.286 3.006,2.524 3.3,2.64 3.891,2.861 4.191,2.132 4.342,1.768 4.642,1.039 2.132,0.098 0.904,-0.453 -1.459,-1.714 -1.627,-1.421 -1.711,-1.275 -1.88,-0.983 -1.154,1.533 -0.695,2.795 0.417,5.294 -0.792,4.785 -1.39,4.514 -2.567,3.936 -2.405,3.631 -2.324,3.479 -2.163,3.176 -2.758,2.883 -3.054,2.732 -3.641,2.422 -3.984,3.023 -4.156,3.324 -4.5,3.925 c 2.603,1.377 3.952,1.98 6.711,3.014 l 0.33,-0.8 C 1.334,3.701 0.826,2.466 0,0"
         style="fill:#67c534;fill-opacity:1;fill-rule:nonzero;stroke:none"
         id="path86"
         inkscape:connector-curvature="0" /></g><g
       id="g88"
       transform="translate(53.9731,121.0571)"><path
         d="M 0,0 C 1.133,0.545 1.708,0.8 2.873,1.276 2.692,1.68 2.602,1.882 2.421,2.286 3.006,2.524 3.3,2.64 3.891,2.861 4.191,2.132 4.342,1.768 4.642,1.039 2.132,0.098 0.904,-0.453 -1.459,-1.714 -1.627,-1.421 -1.711,-1.275 -1.88,-0.983 -1.154,1.533 -0.695,2.795 0.417,5.294 -0.792,4.785 -1.39,4.514 -2.567,3.936 -2.405,3.631 -2.324,3.479 -2.163,3.176 -2.758,2.883 -3.054,2.732 -3.641,2.422 -3.984,3.023 -4.156,3.324 -4.5,3.925 c 2.603,1.377 3.952,1.98 6.711,3.014 l 0.33,-0.8 C 1.334,3.701 0.826,2.466 0,0 Z"
         style="fill:none;stroke:#ffffff;stroke-width:0.15000001;stroke-linecap:butt;stroke-linejoin:miter;stroke-miterlimit:10;stroke-dasharray:none;stroke-opacity:1"
         id="path90"
         inkscape:connector-curvature="0" /></g><g
       id="g92"
       transform="translate(64.8384,124.8789)"><path
         d="m 0,0 c 0.383,0.091 0.574,0.134 0.958,0.218 1.136,0.242 1.917,0.608 2.356,1.144 0.439,0.536 0.643,1.072 0.585,1.615 0.004,0.03 0.004,0.058 0,0.084 C 3.894,3.087 3.89,3.114 3.884,3.143 3.869,3.229 3.847,3.315 3.817,3.399 3.788,3.484 3.753,3.567 3.709,3.649 3.501,4.061 3.084,4.406 2.45,4.669 1.814,4.933 0.895,4.953 -0.282,4.693 -0.643,4.614 -0.823,4.572 -1.184,4.487 -0.71,2.692 -0.473,1.795 0,0 m -3.034,4.018 c -0.437,-0.119 -0.654,-0.18 -1.089,-0.306 -0.106,0.329 -0.159,0.494 -0.265,0.823 1.471,0.427 2.215,0.618 3.712,0.954 0.787,0.17 1.44,0.258 1.955,0.275 C 1.793,5.782 2.206,5.763 2.517,5.716 2.722,5.691 2.893,5.662 3.03,5.627 3.166,5.593 3.281,5.565 3.375,5.545 3.469,5.524 3.611,5.478 3.803,5.406 3.993,5.334 4.198,5.229 4.417,5.097 4.709,4.919 4.987,4.682 5.244,4.384 5.5,4.088 5.656,3.723 5.716,3.293 5.763,2.957 5.72,2.64 5.59,2.343 5.461,2.047 5.318,1.776 5.158,1.563 5.035,1.398 4.903,1.257 4.784,1.142 4.666,1.027 4.575,0.951 4.521,0.912 4.464,0.871 4.406,0.825 4.344,0.783 4.283,0.74 4.225,0.7 4.167,0.661 3.779,0.386 3.346,0.142 2.864,-0.075 2.384,-0.292 1.687,-0.491 0.772,-0.697 c -1.293,-0.292 -1.934,-0.458 -3.205,-0.827 -0.106,0.328 -0.159,0.493 -0.265,0.822 0.398,0.116 0.597,0.172 0.998,0.28 -0.534,1.776 -0.801,2.664 -1.334,4.44"
         style="fill:#67c534;fill-opacity:1;fill-rule:nonzero;stroke:none"
         id="path94"
         inkscape:connector-curvature="0" /></g><g
       id="g96"
       transform="translate(64.8384,124.8789)"><path
         d="m 0,0 c 0.383,0.091 0.574,0.134 0.958,0.218 1.136,0.242 1.917,0.608 2.356,1.144 0.439,0.536 0.643,1.072 0.585,1.615 0.004,0.03 0.004,0.058 0,0.084 C 3.894,3.087 3.89,3.114 3.884,3.143 3.869,3.229 3.847,3.315 3.817,3.399 3.788,3.484 3.753,3.567 3.709,3.649 3.501,4.061 3.084,4.406 2.45,4.669 1.814,4.933 0.895,4.953 -0.282,4.693 -0.643,4.614 -0.823,4.572 -1.184,4.487 -0.71,2.692 -0.473,1.795 0,0 Z m -3.034,4.018 c -0.437,-0.119 -0.654,-0.18 -1.089,-0.306 -0.106,0.329 -0.159,0.494 -0.265,0.823 1.471,0.427 2.215,0.618 3.712,0.954 0.787,0.17 1.44,0.258 1.955,0.275 C 1.793,5.782 2.206,5.763 2.517,5.716 2.722,5.691 2.893,5.662 3.03,5.627 3.166,5.593 3.281,5.565 3.375,5.545 3.469,5.524 3.611,5.478 3.803,5.406 3.993,5.334 4.198,5.229 4.417,5.097 4.709,4.919 4.987,4.682 5.244,4.384 5.5,4.088 5.656,3.723 5.716,3.293 5.763,2.957 5.72,2.64 5.59,2.343 5.461,2.047 5.318,1.776 5.158,1.563 5.035,1.398 4.903,1.257 4.784,1.142 4.666,1.027 4.575,0.951 4.521,0.912 4.464,0.871 4.406,0.825 4.344,0.783 4.283,0.74 4.225,0.7 4.167,0.661 3.779,0.386 3.346,0.142 2.864,-0.075 2.384,-0.292 1.687,-0.491 0.772,-0.697 c -1.293,-0.292 -1.934,-0.458 -3.205,-0.827 -0.106,0.328 -0.159,0.493 -0.265,0.822 0.398,0.116 0.597,0.172 0.998,0.28 -0.534,1.776 -0.801,2.664 -1.334,4.44 z"
         style="fill:none;stroke:#ffffff;stroke-width:0.15000001;stroke-linecap:butt;stroke-linejoin:miter;stroke-miterlimit:10;stroke-dasharray:none;stroke-opacity:1"
         id="path98"
         inkscape:connector-curvature="0" /></g><g
       id="g100"
       transform="translate(71.7852,125.2134)"><path
         d="M 0,0 C -0.042,0.341 -0.063,0.512 -0.105,0.854 0.308,0.899 0.515,0.92 0.93,0.958 0.741,2.795 0.646,3.714 0.457,5.552 0.005,5.511 -0.22,5.488 -0.671,5.438 -0.713,5.78 -0.734,5.951 -0.776,6.292 2.528,6.656 4.199,6.729 7.525,6.659 7.51,5.988 7.502,5.653 7.486,4.983 6.817,4.998 6.483,5 5.815,4.996 5.813,5.322 5.812,5.486 5.81,5.812 4.432,5.804 3.742,5.781 2.366,5.697 2.41,5.06 2.432,4.741 2.475,4.104 3.623,4.173 4.198,4.195 5.349,4.21 5.354,3.811 5.357,3.61 5.364,3.21 4.235,3.195 3.67,3.174 2.543,3.105 2.599,2.3 2.626,1.897 2.681,1.091 3.943,1.168 4.576,1.189 5.841,1.196 5.838,1.611 5.836,1.818 5.834,2.232 6.469,2.236 6.786,2.233 7.42,2.22 7.402,1.462 7.394,1.083 7.375,0.325 4.42,0.388 2.936,0.322 0,0"
         style="fill:#67c534;fill-opacity:1;fill-rule:nonzero;stroke:none"
         id="path102"
         inkscape:connector-curvature="0" /></g><g
       id="g104"
       transform="translate(71.7852,125.2134)"><path
         d="M 0,0 C -0.042,0.341 -0.063,0.512 -0.105,0.854 0.308,0.899 0.515,0.92 0.93,0.958 0.741,2.795 0.646,3.714 0.457,5.552 0.005,5.511 -0.22,5.488 -0.671,5.438 -0.713,5.78 -0.734,5.951 -0.776,6.292 2.528,6.656 4.199,6.729 7.525,6.659 7.51,5.988 7.502,5.653 7.486,4.983 6.817,4.998 6.483,5 5.815,4.996 5.813,5.322 5.812,5.486 5.81,5.812 4.432,5.804 3.742,5.781 2.366,5.697 2.41,5.06 2.432,4.741 2.475,4.104 3.623,4.173 4.198,4.195 5.349,4.21 5.354,3.811 5.357,3.61 5.364,3.21 4.235,3.195 3.67,3.174 2.543,3.105 2.599,2.3 2.626,1.897 2.681,1.091 3.943,1.168 4.576,1.189 5.841,1.196 5.838,1.611 5.836,1.818 5.834,2.232 6.469,2.236 6.786,2.233 7.42,2.22 7.402,1.462 7.394,1.083 7.375,0.325 4.42,0.388 2.936,0.322 0,0 Z"
         style="fill:none;stroke:#ffffff;stroke-width:0.15000001;stroke-linecap:butt;stroke-linejoin:miter;stroke-miterlimit:10;stroke-dasharray:none;stroke-opacity:1"
         id="path106"
         inkscape:connector-curvature="0" /></g><g
       id="g108"
       transform="translate(83.2842,125.3008)"><path
         d="M 0,0 C 0.036,0.342 0.055,0.513 0.091,0.855 0.526,0.814 0.744,0.792 1.179,0.742 1.413,2.575 1.529,3.492 1.764,5.325 1.29,5.379 1.053,5.403 0.577,5.448 0.614,5.791 0.632,5.961 0.668,6.304 2.448,6.136 3.336,6.021 5.098,5.727 5.035,5.388 5.003,5.219 4.939,4.88 4.43,4.965 4.174,5.005 3.661,5.079 3.364,3.254 3.217,2.342 2.92,0.517 3.839,0.384 4.298,0.308 5.21,0.137 5.294,0.536 5.336,0.736 5.419,1.135 6.041,1.019 6.352,0.957 6.97,0.823 6.793,0.091 6.704,-0.275 6.528,-1.008 3.946,-0.45 2.634,-0.249 0,0"
         style="fill:#67c534;fill-opacity:1;fill-rule:nonzero;stroke:none"
         id="path110"
         inkscape:connector-curvature="0" /></g><g
       id="g112"
       transform="translate(83.2842,125.3008)"><path
         d="M 0,0 C 0.036,0.342 0.055,0.513 0.091,0.855 0.526,0.814 0.744,0.792 1.179,0.742 1.413,2.575 1.529,3.492 1.764,5.325 1.29,5.379 1.053,5.403 0.577,5.448 0.614,5.791 0.632,5.961 0.668,6.304 2.448,6.136 3.336,6.021 5.098,5.727 5.035,5.388 5.003,5.219 4.939,4.88 4.43,4.965 4.174,5.005 3.661,5.079 3.364,3.254 3.217,2.342 2.92,0.517 3.839,0.384 4.298,0.308 5.21,0.137 5.294,0.536 5.336,0.736 5.419,1.135 6.041,1.019 6.352,0.957 6.97,0.823 6.793,0.091 6.704,-0.275 6.528,-1.008 3.946,-0.45 2.634,-0.249 0,0 Z"
         style="fill:none;stroke:#ffffff;stroke-width:0.15000001;stroke-linecap:butt;stroke-linejoin:miter;stroke-miterlimit:10;stroke-dasharray:none;stroke-opacity:1"
         id="path114"
         inkscape:connector-curvature="0" /></g><g
       id="g116"
       transform="translate(96.8145,125.4326)"><path
         d="M 0,0 C -0.128,0.953 -0.201,1.43 -0.366,2.386 -0.378,2.39 -0.383,2.391 -0.396,2.395 -1.14,1.728 -1.505,1.389 -2.218,0.702 -1.325,0.439 -0.881,0.299 0,0 m -6.445,-1.263 c 0.085,0.334 0.127,0.502 0.212,0.836 0.309,-0.07 0.463,-0.107 0.773,-0.181 1.426,1.561 2.179,2.321 3.76,3.795 -0.446,0.128 -0.669,0.19 -1.117,0.311 0.098,0.331 0.148,0.496 0.247,0.827 C -0.422,3.749 0.64,3.412 2.722,2.641 2.591,2.32 2.525,2.16 2.395,1.839 1.966,1.998 1.751,2.075 1.318,2.226 1.621,0.153 1.729,-0.88 1.855,-2.934 2.132,-3.044 2.269,-3.1 2.541,-3.213 2.397,-3.529 2.326,-3.687 2.183,-4.002 0.885,-3.463 0.225,-3.216 -1.108,-2.765 l 0.302,0.81 c 0.403,-0.136 0.604,-0.206 1.003,-0.35 -0.063,0.553 -0.099,0.829 -0.176,1.384 -1.14,0.395 -1.716,0.576 -2.877,0.909 -0.412,-0.399 -0.614,-0.6 -1.013,-1.007 0.405,-0.11 0.607,-0.168 1.011,-0.287 -0.108,-0.328 -0.163,-0.492 -0.269,-0.821 -1.314,0.387 -1.979,0.56 -3.318,0.864"
         style="fill:#67c534;fill-opacity:1;fill-rule:nonzero;stroke:none"
         id="path118"
         inkscape:connector-curvature="0" /></g><g
       id="g120"
       transform="translate(96.8145,125.4326)"><path
         d="M 0,0 C -0.128,0.953 -0.201,1.43 -0.366,2.386 -0.378,2.39 -0.383,2.391 -0.396,2.395 -1.14,1.728 -1.505,1.389 -2.218,0.702 -1.325,0.439 -0.881,0.299 0,0 Z m -6.445,-1.263 c 0.085,0.334 0.127,0.502 0.212,0.836 0.309,-0.07 0.463,-0.107 0.773,-0.181 1.426,1.561 2.179,2.321 3.76,3.795 -0.446,0.128 -0.669,0.19 -1.117,0.311 0.098,0.331 0.148,0.496 0.247,0.827 C -0.422,3.749 0.64,3.412 2.722,2.641 2.591,2.32 2.525,2.16 2.395,1.839 1.966,1.998 1.751,2.075 1.318,2.226 1.621,0.153 1.729,-0.88 1.855,-2.934 2.132,-3.044 2.269,-3.1 2.541,-3.213 2.397,-3.529 2.326,-3.687 2.183,-4.002 0.885,-3.463 0.225,-3.216 -1.108,-2.765 l 0.302,0.81 c 0.403,-0.136 0.604,-0.206 1.003,-0.35 -0.063,0.553 -0.099,0.829 -0.176,1.384 -1.14,0.395 -1.716,0.576 -2.877,0.909 -0.412,-0.399 -0.614,-0.6 -1.013,-1.007 0.405,-0.11 0.607,-0.168 1.011,-0.287 -0.108,-0.328 -0.163,-0.492 -0.269,-0.821 -1.314,0.387 -1.979,0.56 -3.318,0.864 z"
         style="fill:none;stroke:#ffffff;stroke-width:0.15000001;stroke-linecap:butt;stroke-linejoin:miter;stroke-miterlimit:10;stroke-dasharray:none;stroke-opacity:1"
         id="path122"
         inkscape:connector-curvature="0" /></g><g
       id="g124"
       transform="translate(105.1865,120.875)"><path
         d="m 0,0 c -0.146,-0.406 -0.105,-0.827 0.111,-1.265 0.217,-0.438 0.603,-0.821 1.158,-1.162 0.334,-0.207 0.673,-0.316 1.021,-0.324 0.347,-0.01 0.599,0.093 0.752,0.312 0.184,0.262 0.202,0.515 0.051,0.758 -0.154,0.244 -0.405,0.526 -0.762,0.844 -0.143,0.122 -0.29,0.251 -0.445,0.385 -0.157,0.136 -0.321,0.277 -0.49,0.425 C 1.324,0.035 1.189,0.146 0.993,0.303 0.794,0.46 0.592,0.653 0.393,0.878 0.152,1.15 -0.034,1.465 -0.169,1.821 -0.305,2.176 -0.264,2.552 -0.042,2.95 0.007,3.038 0.083,3.125 0.187,3.211 0.29,3.297 0.415,3.372 0.563,3.435 0.885,3.567 1.312,3.616 1.849,3.572 2.384,3.529 3.023,3.297 3.75,2.865 4.107,2.651 4.425,2.401 4.694,2.117 4.964,1.833 5.17,1.544 5.314,1.251 5.409,1.386 5.455,1.453 5.549,1.588 6.072,1.247 6.332,1.072 6.847,0.715 6.392,0.094 6.164,-0.216 5.709,-0.836 5.235,-0.508 4.996,-0.347 4.515,-0.032 4.561,0.136 4.574,0.312 4.554,0.494 4.532,0.677 4.476,0.858 4.385,1.036 4.288,1.222 4.155,1.404 3.982,1.58 3.812,1.756 3.601,1.919 3.35,2.07 2.979,2.291 2.631,2.405 2.311,2.414 1.992,2.422 1.76,2.306 1.616,2.067 1.494,1.864 1.564,1.625 1.825,1.346 2.085,1.067 2.414,0.757 2.813,0.411 2.921,0.317 3.034,0.218 3.152,0.113 3.271,0.008 3.386,-0.097 3.497,-0.203 4.017,-0.686 4.437,-1.19 4.757,-1.705 5.079,-2.221 5.021,-2.759 4.604,-3.315 4.245,-3.795 3.717,-4.006 3.028,-3.974 2.338,-3.94 1.637,-3.691 0.896,-3.233 0.521,-3 0.187,-2.75 -0.115,-2.478 c -0.303,0.272 -0.555,0.573 -0.761,0.903 -0.08,-0.134 -0.12,-0.201 -0.2,-0.336 -0.486,0.269 -0.73,0.4 -1.223,0.656 0.429,0.765 0.643,1.147 1.07,1.912 C -0.733,0.401 -0.487,0.27 0,0"
         style="fill:#67c534;fill-opacity:1;fill-rule:nonzero;stroke:none"
         id="path126"
         inkscape:connector-curvature="0" /></g><g
       id="g128"
       transform="translate(105.1865,120.875)"><path
         d="m 0,0 c -0.146,-0.406 -0.105,-0.827 0.111,-1.265 0.217,-0.438 0.603,-0.821 1.158,-1.162 0.334,-0.207 0.673,-0.316 1.021,-0.324 0.347,-0.01 0.599,0.093 0.752,0.312 0.184,0.262 0.202,0.515 0.051,0.758 -0.154,0.244 -0.405,0.526 -0.762,0.844 -0.143,0.122 -0.29,0.251 -0.445,0.385 -0.157,0.136 -0.321,0.277 -0.49,0.425 C 1.324,0.035 1.189,0.146 0.993,0.303 0.794,0.46 0.592,0.653 0.393,0.878 0.152,1.15 -0.034,1.465 -0.169,1.821 -0.305,2.176 -0.264,2.552 -0.042,2.95 0.007,3.038 0.083,3.125 0.187,3.211 0.29,3.297 0.415,3.372 0.563,3.435 0.885,3.567 1.312,3.616 1.849,3.572 2.384,3.529 3.023,3.297 3.75,2.865 4.107,2.651 4.425,2.401 4.694,2.117 4.964,1.833 5.17,1.544 5.314,1.251 5.409,1.386 5.455,1.453 5.549,1.588 6.072,1.247 6.332,1.072 6.847,0.715 6.392,0.094 6.164,-0.216 5.709,-0.836 5.235,-0.508 4.996,-0.347 4.515,-0.032 4.561,0.136 4.574,0.312 4.554,0.494 4.532,0.677 4.476,0.858 4.385,1.036 4.288,1.222 4.155,1.404 3.982,1.58 3.812,1.756 3.601,1.919 3.35,2.07 2.979,2.291 2.631,2.405 2.311,2.414 1.992,2.422 1.76,2.306 1.616,2.067 1.494,1.864 1.564,1.625 1.825,1.346 2.085,1.067 2.414,0.757 2.813,0.411 2.921,0.317 3.034,0.218 3.152,0.113 3.271,0.008 3.386,-0.097 3.497,-0.203 4.017,-0.686 4.437,-1.19 4.757,-1.705 5.079,-2.221 5.021,-2.759 4.604,-3.315 4.245,-3.795 3.717,-4.006 3.028,-3.974 2.338,-3.94 1.637,-3.691 0.896,-3.233 0.521,-3 0.187,-2.75 -0.115,-2.478 c -0.303,0.272 -0.555,0.573 -0.761,0.903 -0.08,-0.134 -0.12,-0.201 -0.2,-0.336 -0.486,0.269 -0.73,0.4 -1.223,0.656 0.429,0.765 0.643,1.147 1.07,1.912 C -0.733,0.401 -0.487,0.27 0,0 Z"
         style="fill:none;stroke:#ffffff;stroke-width:0.15000001;stroke-linecap:butt;stroke-linejoin:miter;stroke-miterlimit:10;stroke-dasharray:none;stroke-opacity:1"
         id="path130"
         inkscape:connector-curvature="0" /></g><g
       id="g132"
       transform="translate(113.4141,120.5991)"><path
         d="M 0,0 C 1.343,-0.997 1.996,-1.522 3.261,-2.628 3.026,-2.888 2.909,-3.018 2.675,-3.277 2.327,-2.974 2.152,-2.824 1.8,-2.529 1.032,-3.414 0.647,-3.856 -0.118,-4.74 -0.142,-4.767 -0.163,-4.792 -0.183,-4.814 l -0.058,-0.068 c -0.02,-0.022 -0.04,-0.046 -0.062,-0.071 -0.021,-0.025 -0.044,-0.05 -0.067,-0.077 -0.218,-0.252 -0.346,-0.546 -0.384,-0.878 -0.038,-0.334 0.264,-0.769 0.889,-1.334 0.571,-0.516 1.005,-0.742 1.319,-0.656 0.314,0.085 0.59,0.245 0.825,0.482 0.021,0.021 0.042,0.043 0.066,0.067 0.023,0.023 0.045,0.045 0.066,0.066 0.021,0.021 0.043,0.043 0.066,0.067 0.023,0.023 0.044,0.045 0.066,0.066 0.827,0.835 1.241,1.253 2.069,2.088 -0.333,0.322 -0.501,0.481 -0.841,0.795 0.243,0.254 0.364,0.381 0.605,0.634 C 5.611,-4.778 6.209,-5.378 7.354,-6.634 7.096,-6.87 6.966,-6.987 6.707,-7.223 6.416,-6.904 6.27,-6.747 5.974,-6.437 4.978,-7.375 4.479,-7.844 3.482,-8.783 2.95,-9.286 2.359,-9.447 1.717,-9.292 c -0.644,0.155 -1.23,0.431 -1.772,0.829 -0.092,0.071 -0.181,0.141 -0.267,0.213 -0.086,0.07 -0.168,0.141 -0.247,0.212 -0.717,0.65 -1.229,1.321 -1.539,2.047 -0.31,0.726 -0.264,1.355 0.171,1.89 0.897,1.109 1.346,1.663 2.244,2.772 -0.335,0.26 -0.504,0.388 -0.844,0.64 C -0.322,-0.414 -0.215,-0.275 0,0"
         style="fill:#67c534;fill-opacity:1;fill-rule:nonzero;stroke:none"
         id="path134"
         inkscape:connector-curvature="0" /></g><g
       id="g136"
       transform="translate(113.4141,120.5991)"><path
         d="M 0,0 C 1.343,-0.997 1.996,-1.522 3.261,-2.628 3.026,-2.888 2.909,-3.018 2.675,-3.277 2.327,-2.974 2.152,-2.824 1.8,-2.529 1.032,-3.414 0.647,-3.856 -0.118,-4.74 -0.142,-4.767 -0.163,-4.792 -0.183,-4.814 l -0.058,-0.068 c -0.02,-0.022 -0.04,-0.046 -0.062,-0.071 -0.021,-0.025 -0.044,-0.05 -0.067,-0.077 -0.218,-0.252 -0.346,-0.546 -0.384,-0.878 -0.038,-0.334 0.264,-0.769 0.889,-1.334 0.571,-0.516 1.005,-0.742 1.319,-0.656 0.314,0.085 0.59,0.245 0.825,0.482 0.021,0.021 0.042,0.043 0.066,0.067 0.023,0.023 0.045,0.045 0.066,0.066 0.021,0.021 0.043,0.043 0.066,0.067 0.023,0.023 0.044,0.045 0.066,0.066 0.827,0.835 1.241,1.253 2.069,2.088 -0.333,0.322 -0.501,0.481 -0.841,0.795 0.243,0.254 0.364,0.381 0.605,0.634 C 5.611,-4.778 6.209,-5.378 7.354,-6.634 7.096,-6.87 6.966,-6.987 6.707,-7.223 6.416,-6.904 6.27,-6.747 5.974,-6.437 4.978,-7.375 4.479,-7.844 3.482,-8.783 2.95,-9.286 2.359,-9.447 1.717,-9.292 c -0.644,0.155 -1.23,0.431 -1.772,0.829 -0.092,0.071 -0.181,0.141 -0.267,0.213 -0.086,0.07 -0.168,0.141 -0.247,0.212 -0.717,0.65 -1.229,1.321 -1.539,2.047 -0.31,0.726 -0.264,1.355 0.171,1.89 0.897,1.109 1.346,1.663 2.244,2.772 -0.335,0.26 -0.504,0.388 -0.844,0.64 C -0.322,-0.414 -0.215,-0.275 0,0 Z"
         style="fill:none;stroke:#ffffff;stroke-width:0.15000001;stroke-linecap:butt;stroke-linejoin:miter;stroke-miterlimit:10;stroke-dasharray:none;stroke-opacity:1"
         id="path138"
         inkscape:connector-curvature="0" /></g><g
       id="g140"
       transform="translate(116.5137,109.0488)"><path
         d="M 0,0 C 0.263,0.231 0.395,0.347 0.657,0.578 0.937,0.261 1.076,0.1 1.35,-0.225 2.786,0.988 3.504,1.595 4.939,2.808 4.642,3.162 4.491,3.337 4.186,3.683 4.449,3.915 4.58,4.03 4.843,4.262 7.081,1.724 8.113,0.347 9.947,-2.625 9.375,-2.994 9.088,-3.179 8.516,-3.549 c -0.37,0.597 -0.558,0.891 -0.944,1.47 0.274,0.188 0.409,0.283 0.683,0.472 C 7.458,-0.414 7.041,0.165 6.173,1.283 5.662,0.88 5.406,0.679 4.896,0.277 5.62,-0.656 5.97,-1.136 6.644,-2.124 6.311,-2.358 6.145,-2.475 5.812,-2.709 5.15,-1.74 4.807,-1.269 4.095,-0.353 3.449,-0.861 3.126,-1.116 2.479,-1.624 3.276,-2.65 3.659,-3.18 4.391,-4.276 c 0.346,0.24 0.52,0.359 0.867,0.599 0.367,-0.55 0.546,-0.829 0.896,-1.396 C 5.506,-5.491 5.183,-5.7 4.534,-6.118 2.904,-3.478 1.988,-2.255 0,0"
         style="fill:#67c534;fill-opacity:1;fill-rule:nonzero;stroke:none"
         id="path142"
         inkscape:connector-curvature="0" /></g><g
       id="g144"
       transform="translate(116.5137,109.0488)"><path
         d="M 0,0 C 0.263,0.231 0.395,0.347 0.657,0.578 0.937,0.261 1.076,0.1 1.35,-0.225 2.786,0.988 3.504,1.595 4.939,2.808 4.642,3.162 4.491,3.337 4.186,3.683 4.449,3.915 4.58,4.03 4.843,4.262 7.081,1.724 8.113,0.347 9.947,-2.625 9.375,-2.994 9.088,-3.179 8.516,-3.549 c -0.37,0.597 -0.558,0.891 -0.944,1.47 0.274,0.188 0.409,0.283 0.683,0.472 C 7.458,-0.414 7.041,0.165 6.173,1.283 5.662,0.88 5.406,0.679 4.896,0.277 5.62,-0.656 5.97,-1.136 6.644,-2.124 6.311,-2.358 6.145,-2.475 5.812,-2.709 5.15,-1.74 4.807,-1.269 4.095,-0.353 3.449,-0.861 3.126,-1.116 2.479,-1.624 3.276,-2.65 3.659,-3.18 4.391,-4.276 c 0.346,0.24 0.52,0.359 0.867,0.599 0.367,-0.55 0.546,-0.829 0.896,-1.396 C 5.506,-5.491 5.183,-5.7 4.534,-6.118 2.904,-3.478 1.988,-2.255 0,0 Z"
         style="fill:none;stroke:#ffffff;stroke-width:0.15000001;stroke-linecap:butt;stroke-linejoin:miter;stroke-miterlimit:10;stroke-dasharray:none;stroke-opacity:1"
         id="path146"
         inkscape:connector-curvature="0" /></g><g
       id="g148"
       transform="translate(126.1934,101.5234)"><path
         d="m 0,0 c 0.233,-0.458 0.349,-0.689 0.571,-1.156 0.235,-0.503 0.491,-0.946 0.779,-1.328 0.285,-0.381 0.622,-0.485 1.015,-0.301 0.286,0.134 0.4,0.398 0.334,0.793 C 2.633,-1.597 2.501,-1.181 2.32,-0.753 2.273,-0.647 2.229,-0.537 2.178,-0.432 2.128,-0.327 2.08,-0.228 2.033,-0.131 1.843,0.264 1.745,0.459 1.547,0.847 0.929,0.508 0.619,0.339 0,0 m -4.74,0.738 c 0.297,0.185 0.445,0.278 0.742,0.463 0.224,-0.377 0.334,-0.568 0.551,-0.953 1.611,0.96 2.418,1.439 4.03,2.398 C 0.347,3.066 0.227,3.273 -0.018,3.685 0.279,3.87 0.428,3.962 0.724,4.147 1.723,2.466 2.188,1.592 3.044,-0.224 3.052,-0.256 3.063,-0.286 3.077,-0.315 3.091,-0.345 3.104,-0.374 3.118,-0.403 3.219,-0.619 3.336,-0.884 3.468,-1.2 3.599,-1.515 3.705,-1.851 3.779,-2.197 3.839,-2.469 3.874,-2.751 3.889,-3.038 3.902,-3.324 3.875,-3.601 3.808,-3.868 3.8,-3.896 3.792,-3.922 3.786,-3.948 3.78,-3.975 3.773,-3.995 3.768,-4.01 3.689,-4.269 3.588,-4.441 3.463,-4.529 3.339,-4.617 3.251,-4.671 3.202,-4.692 3.199,-4.693 3.197,-4.694 3.194,-4.695 2.851,-4.84 2.521,-4.817 2.205,-4.631 1.889,-4.445 1.556,-4.105 1.199,-3.621 1.195,-3.623 1.194,-3.623 1.189,-3.625 1.32,-4.134 1.347,-4.506 1.278,-4.735 1.21,-4.962 1.104,-5.123 0.962,-5.218 0.934,-5.241 0.901,-5.261 0.865,-5.276 0.83,-5.291 0.797,-5.306 0.764,-5.32 0.235,-5.547 -0.029,-5.661 -0.558,-5.888 c 0.152,-0.391 0.226,-0.589 0.37,-0.986 -0.323,-0.131 -0.484,-0.196 -0.805,-0.327 -0.405,1.116 -0.623,1.661 -1.085,2.727 0.812,0.387 1.219,0.579 2.032,0.966 0.208,0.099 0.297,0.298 0.262,0.597 -0.035,0.298 -0.121,0.611 -0.248,0.93 -0.034,0.084 -0.069,0.169 -0.106,0.254 -0.036,0.083 -0.073,0.166 -0.112,0.248 -0.205,0.426 -0.311,0.637 -0.523,1.056 -0.716,-0.392 -1.074,-0.588 -1.79,-0.98 0.21,-0.412 0.314,-0.621 0.516,-1.042 -0.309,-0.16 -0.465,-0.241 -0.774,-0.402 -0.712,1.486 -1.098,2.202 -1.919,3.585"
         style="fill:#67c534;fill-opacity:1;fill-rule:nonzero;stroke:none"
         id="path150"
         inkscape:connector-curvature="0" /></g><g
       id="g152"
       transform="translate(126.1934,101.5234)"><path
         d="m 0,0 c 0.233,-0.458 0.349,-0.689 0.571,-1.156 0.235,-0.503 0.491,-0.946 0.779,-1.328 0.285,-0.381 0.622,-0.485 1.015,-0.301 0.286,0.134 0.4,0.398 0.334,0.793 C 2.633,-1.597 2.501,-1.181 2.32,-0.753 2.273,-0.647 2.229,-0.537 2.178,-0.432 2.128,-0.327 2.08,-0.228 2.033,-0.131 1.843,0.264 1.745,0.459 1.547,0.847 0.929,0.508 0.619,0.339 0,0 Z m -4.74,0.738 c 0.297,0.185 0.445,0.278 0.742,0.463 0.224,-0.377 0.334,-0.568 0.551,-0.953 1.611,0.96 2.418,1.439 4.03,2.398 C 0.347,3.066 0.227,3.273 -0.018,3.685 0.279,3.87 0.428,3.962 0.724,4.147 1.723,2.466 2.188,1.592 3.044,-0.224 3.052,-0.256 3.063,-0.286 3.077,-0.315 3.091,-0.345 3.104,-0.374 3.118,-0.403 3.219,-0.619 3.336,-0.884 3.468,-1.2 3.599,-1.515 3.705,-1.851 3.779,-2.197 3.839,-2.469 3.874,-2.751 3.889,-3.038 3.902,-3.324 3.875,-3.601 3.808,-3.868 3.8,-3.896 3.792,-3.922 3.786,-3.948 3.78,-3.975 3.773,-3.995 3.768,-4.01 3.689,-4.269 3.588,-4.441 3.463,-4.529 3.339,-4.617 3.251,-4.671 3.202,-4.692 3.199,-4.693 3.197,-4.694 3.194,-4.695 2.851,-4.84 2.521,-4.817 2.205,-4.631 1.889,-4.445 1.556,-4.105 1.199,-3.621 1.195,-3.623 1.194,-3.623 1.189,-3.625 1.32,-4.134 1.347,-4.506 1.278,-4.735 1.21,-4.962 1.104,-5.123 0.962,-5.218 0.934,-5.241 0.901,-5.261 0.865,-5.276 0.83,-5.291 0.797,-5.306 0.764,-5.32 0.235,-5.547 -0.029,-5.661 -0.558,-5.888 c 0.152,-0.391 0.226,-0.589 0.37,-0.986 -0.323,-0.131 -0.484,-0.196 -0.805,-0.327 -0.405,1.116 -0.623,1.661 -1.085,2.727 0.812,0.387 1.219,0.579 2.032,0.966 0.208,0.099 0.297,0.298 0.262,0.597 -0.035,0.298 -0.121,0.611 -0.248,0.93 -0.034,0.084 -0.069,0.169 -0.106,0.254 -0.036,0.083 -0.073,0.166 -0.112,0.248 -0.205,0.426 -0.311,0.637 -0.523,1.056 -0.716,-0.392 -1.074,-0.588 -1.79,-0.98 0.21,-0.412 0.314,-0.621 0.516,-1.042 -0.309,-0.16 -0.465,-0.241 -0.774,-0.402 -0.712,1.486 -1.098,2.202 -1.919,3.585 z"
         style="fill:none;stroke:#ffffff;stroke-width:0.15000001;stroke-linecap:butt;stroke-linejoin:miter;stroke-miterlimit:10;stroke-dasharray:none;stroke-opacity:1"
         id="path154"
         inkscape:connector-curvature="0" /></g><g
       id="g156"
       transform="translate(129.7129,95.3862)"><path
         d="M 0,0 C 0.667,0.261 1.001,0.392 1.668,0.653 2.863,-2.784 3.343,-4.605 4.018,-8.454 3.321,-8.602 2.973,-8.675 2.276,-8.823 2.138,-8.031 2.063,-7.64 1.898,-6.866 c 0.358,0.089 0.536,0.133 0.892,0.222 -0.131,0.622 -0.199,0.93 -0.345,1.54 -1.79,-0.501 -2.684,-0.751 -4.474,-1.252 0.127,-0.535 0.187,-0.805 0.301,-1.35 -0.335,-0.084 -0.501,-0.126 -0.836,-0.211 -0.397,1.873 -0.632,2.78 -1.173,4.537 0.327,0.115 0.491,0.173 0.818,0.288 0.157,-0.511 0.232,-0.769 0.379,-1.29 1.77,0.571 2.657,0.857 4.429,1.429 -0.166,0.594 -0.252,0.888 -0.433,1.47 C 1.107,-1.605 0.936,-1.667 0.588,-1.79 0.363,-1.064 0.246,-0.707 0,0"
         style="fill:#67c534;fill-opacity:1;fill-rule:nonzero;stroke:none"
         id="path158"
         inkscape:connector-curvature="0" /></g><g
       id="g160"
       transform="translate(129.7129,95.3862)"><path
         d="M 0,0 C 0.667,0.261 1.001,0.392 1.668,0.653 2.863,-2.784 3.343,-4.605 4.018,-8.454 3.321,-8.602 2.973,-8.675 2.276,-8.823 2.138,-8.031 2.063,-7.64 1.898,-6.866 c 0.358,0.089 0.536,0.133 0.892,0.222 -0.131,0.622 -0.199,0.93 -0.345,1.54 -1.79,-0.501 -2.684,-0.751 -4.474,-1.252 0.127,-0.535 0.187,-0.805 0.301,-1.35 -0.335,-0.084 -0.501,-0.126 -0.836,-0.211 -0.397,1.873 -0.632,2.78 -1.173,4.537 0.327,0.115 0.491,0.173 0.818,0.288 0.157,-0.511 0.232,-0.769 0.379,-1.29 1.77,0.571 2.657,0.857 4.429,1.429 -0.166,0.594 -0.252,0.888 -0.433,1.47 C 1.107,-1.605 0.936,-1.667 0.588,-1.79 0.363,-1.064 0.246,-0.707 0,0 Z"
         style="fill:none;stroke:#ffffff;stroke-width:0.15000001;stroke-linecap:butt;stroke-linejoin:miter;stroke-miterlimit:10;stroke-dasharray:none;stroke-opacity:1"
         id="path162"
         inkscape:connector-curvature="0" /></g><g
       id="g164"
       transform="translate(127.6689,84.6328)"><path
         d="m 0,0 c 0.339,0.065 0.509,0.097 0.848,0.162 0.079,-0.5 0.115,-0.752 0.183,-1.259 1.826,0.303 2.74,0.454 4.567,0.757 C 5.522,0.213 5.483,0.487 5.396,1.032 5.736,1.097 5.906,1.13 6.245,1.194 6.872,-2.802 7.045,-4.908 7.055,-9.337 6.385,-9.339 6.05,-9.34 5.379,-9.342 5.377,-8.453 5.369,-8.013 5.341,-7.141 5.667,-7.127 5.83,-7.12 6.156,-7.106 6.097,-5.308 6.039,-4.427 5.871,-2.705 5.236,-2.783 4.919,-2.822 4.283,-2.899 4.424,-4.337 4.475,-5.069 4.537,-6.561 4.138,-6.583 3.937,-6.593 3.538,-6.615 3.477,-5.151 3.427,-4.432 3.289,-3.021 2.486,-3.119 2.085,-3.168 1.282,-3.267 1.437,-4.847 1.489,-5.654 1.544,-7.304 1.957,-7.286 2.164,-7.277 2.578,-7.26 2.604,-8.087 2.613,-8.506 2.615,-9.351 1.855,-9.353 1.478,-9.354 0.72,-9.356 0.711,-5.421 0.558,-3.55 0,0"
         style="fill:#67c534;fill-opacity:1;fill-rule:nonzero;stroke:none"
         id="path166"
         inkscape:connector-curvature="0" /></g><g
       id="g168"
       transform="translate(127.6689,84.6328)"><path
         d="m 0,0 c 0.339,0.065 0.509,0.097 0.848,0.162 0.079,-0.5 0.115,-0.752 0.183,-1.259 1.826,0.303 2.74,0.454 4.567,0.757 C 5.522,0.213 5.483,0.487 5.396,1.032 5.736,1.097 5.906,1.13 6.245,1.194 6.872,-2.802 7.045,-4.908 7.055,-9.337 6.385,-9.339 6.05,-9.34 5.379,-9.342 5.377,-8.453 5.369,-8.013 5.341,-7.141 5.667,-7.127 5.83,-7.12 6.156,-7.106 6.097,-5.308 6.039,-4.427 5.871,-2.705 5.236,-2.783 4.919,-2.822 4.283,-2.899 4.424,-4.337 4.475,-5.069 4.537,-6.561 4.138,-6.583 3.937,-6.593 3.538,-6.615 3.477,-5.151 3.427,-4.432 3.289,-3.021 2.486,-3.119 2.085,-3.168 1.282,-3.267 1.437,-4.847 1.489,-5.654 1.544,-7.304 1.957,-7.286 2.164,-7.277 2.578,-7.26 2.604,-8.087 2.613,-8.506 2.615,-9.351 1.855,-9.353 1.478,-9.354 0.72,-9.356 0.711,-5.421 0.558,-3.55 0,0 Z"
         style="fill:none;stroke:#ffffff;stroke-width:0.15000001;stroke-linecap:butt;stroke-linejoin:miter;stroke-miterlimit:10;stroke-dasharray:none;stroke-opacity:1"
         id="path170"
         inkscape:connector-curvature="0" /></g><g
       id="g172"
       transform="translate(49.4937,31.2354)"><path
         d="m 0,0 c 0.557,-0.668 0.676,-1.314 0.336,-1.948 -0.299,-0.559 -0.745,-0.901 -1.376,-1.011 -0.662,-0.117 -1.392,0.063 -2.157,0.521 -0.321,0.192 -0.645,0.424 -0.963,0.69 -0.318,0.267 -0.546,0.493 -0.717,0.672 -0.097,0.108 -0.144,0.163 -0.241,0.271 0.379,0.577 0.568,0.867 0.947,1.446 0.192,-0.126 0.288,-0.189 0.481,-0.312 0.118,-0.076 0.152,-0.154 0.109,-0.265 -0.01,-0.039 -0.078,-0.188 -0.202,-0.428 -0.124,-0.24 -0.196,-0.375 -0.196,-0.375 0.41,-0.464 0.769,-0.795 1.095,-0.991 0.327,-0.197 0.592,-0.307 0.805,-0.365 0.214,-0.057 0.421,-0.077 0.601,-0.048 0.38,0.05 0.648,0.243 0.835,0.578 0.178,0.317 0.137,0.669 -0.125,1.042 -0.112,0.172 -0.252,0.343 -0.419,0.507 -0.534,0.537 -0.875,0.896 -1.023,1.089 -0.147,0.195 -0.264,0.415 -0.345,0.626 -0.18,0.479 -0.103,0.946 0.195,1.404 0.282,0.434 0.691,0.676 1.232,0.76 C -0.552,3.952 0.033,3.813 0.639,3.455 1.246,3.096 1.807,2.646 2.318,2.063 2.018,1.506 1.867,1.228 1.566,0.67 1.38,0.771 1.288,0.821 1.103,0.923 0.987,0.987 0.943,1.065 0.98,1.178 0.99,1.195 1.096,1.454 1.33,1.961 0.97,2.294 0.63,2.567 0.313,2.755 -0.078,2.986 -0.442,3.096 -0.775,3.054 -1.081,3.016 -1.335,2.857 -1.498,2.599 -1.676,2.313 -1.649,1.979 -1.405,1.604 -1.302,1.429 -1.16,1.253 -0.991,1.074 -0.51,0.563 -0.169,0.205 0.02,-0.012 0.012,-0.007 0.008,-0.005 0,0"
         style="fill:#67c534;fill-opacity:1;fill-rule:nonzero;stroke:none"
         id="path174"
         inkscape:connector-curvature="0" /></g><g
       id="g176"
       transform="translate(49.4937,31.2354)"><path
         d="m 0,0 c 0.557,-0.668 0.676,-1.314 0.336,-1.948 -0.299,-0.559 -0.745,-0.901 -1.376,-1.011 -0.662,-0.117 -1.392,0.063 -2.157,0.521 -0.321,0.192 -0.645,0.424 -0.963,0.69 -0.318,0.267 -0.546,0.493 -0.717,0.672 -0.097,0.108 -0.144,0.163 -0.241,0.271 0.379,0.577 0.568,0.867 0.947,1.446 0.192,-0.126 0.288,-0.189 0.481,-0.312 0.118,-0.076 0.152,-0.154 0.109,-0.265 -0.01,-0.039 -0.078,-0.188 -0.202,-0.428 -0.124,-0.24 -0.196,-0.375 -0.196,-0.375 0.41,-0.464 0.769,-0.795 1.095,-0.991 0.327,-0.197 0.592,-0.307 0.805,-0.365 0.214,-0.057 0.421,-0.077 0.601,-0.048 0.38,0.05 0.648,0.243 0.835,0.578 0.178,0.317 0.137,0.669 -0.125,1.042 -0.112,0.172 -0.252,0.343 -0.419,0.507 -0.534,0.537 -0.875,0.896 -1.023,1.089 -0.147,0.195 -0.264,0.415 -0.345,0.626 -0.18,0.479 -0.103,0.946 0.195,1.404 0.282,0.434 0.691,0.676 1.232,0.76 C -0.552,3.952 0.033,3.813 0.639,3.455 1.246,3.096 1.807,2.646 2.318,2.063 2.018,1.506 1.867,1.228 1.566,0.67 1.38,0.771 1.288,0.821 1.103,0.923 0.987,0.987 0.943,1.065 0.98,1.178 0.99,1.195 1.096,1.454 1.33,1.961 0.97,2.294 0.63,2.567 0.313,2.755 -0.078,2.986 -0.442,3.096 -0.775,3.054 -1.081,3.016 -1.335,2.857 -1.498,2.599 -1.676,2.313 -1.649,1.979 -1.405,1.604 -1.302,1.429 -1.16,1.253 -0.991,1.074 -0.51,0.563 -0.169,0.205 0.02,-0.012 0.012,-0.007 0.008,-0.005 0,0 Z"
         style="fill:none;stroke:#ffffff;stroke-width:0.15000001;stroke-linecap:butt;stroke-linejoin:miter;stroke-miterlimit:10;stroke-dasharray:none;stroke-opacity:1"
         id="path178"
         inkscape:connector-curvature="0" /></g><g
       id="g180"
       transform="translate(57.5552,30.9424)"><path
         d="m 0,0 c -0.248,-0.616 -0.372,-0.925 -0.619,-1.541 -0.193,0.078 -0.289,0.117 -0.481,0.196 -0.12,0.05 -0.171,0.122 -0.148,0.238 0.011,0.026 0.078,0.269 0.217,0.711 -1.054,0.442 -1.577,0.676 -2.612,1.173 -0.396,-0.822 -0.594,-1.234 -0.99,-2.058 1.061,-0.511 1.597,-0.752 2.678,-1.205 -0.113,-0.27 -0.17,-0.406 -0.283,-0.673 -1.094,0.459 -1.637,0.703 -2.712,1.221 -0.407,-0.848 -0.611,-1.271 -1.018,-2.12 1.135,-0.546 1.708,-0.802 2.864,-1.287 0.206,0.37 0.32,0.584 0.331,0.611 0.065,0.096 0.165,0.096 0.293,0.044 0.204,-0.084 0.307,-0.126 0.512,-0.209 -0.238,-0.591 -0.357,-0.887 -0.594,-1.478 -2.254,0.906 -3.366,1.417 -5.542,2.554 0.074,0.142 0.112,0.215 0.187,0.357 0.044,0.085 0.128,0.116 0.241,0.08 0.259,-0.088 0.389,-0.13 0.648,-0.214 0.987,1.957 1.481,2.937 2.468,4.894 C -4.841,1.5 -5.004,1.634 -5.052,1.675 -5.13,1.742 -5.155,1.826 -5.11,1.911 -5.036,2.055 -4.999,2.126 -4.924,2.269 -2.99,1.259 -2.002,0.805 0,0"
         style="fill:#67c534;fill-opacity:1;fill-rule:nonzero;stroke:none"
         id="path182"
         inkscape:connector-curvature="0" /></g><g
       id="g184"
       transform="translate(57.5552,30.9424)"><path
         d="m 0,0 c -0.248,-0.616 -0.372,-0.925 -0.619,-1.541 -0.193,0.078 -0.289,0.117 -0.481,0.196 -0.12,0.05 -0.171,0.122 -0.148,0.238 0.011,0.026 0.078,0.269 0.217,0.711 -1.054,0.442 -1.577,0.676 -2.612,1.173 -0.396,-0.822 -0.594,-1.234 -0.99,-2.058 1.061,-0.511 1.597,-0.752 2.678,-1.205 -0.113,-0.27 -0.17,-0.406 -0.283,-0.673 -1.094,0.459 -1.637,0.703 -2.712,1.221 -0.407,-0.848 -0.611,-1.271 -1.018,-2.12 1.135,-0.546 1.708,-0.802 2.864,-1.287 0.206,0.37 0.32,0.584 0.331,0.611 0.065,0.096 0.165,0.096 0.293,0.044 0.204,-0.084 0.307,-0.126 0.512,-0.209 -0.238,-0.591 -0.357,-0.887 -0.594,-1.478 -2.254,0.906 -3.366,1.417 -5.542,2.554 0.074,0.142 0.112,0.215 0.187,0.357 0.044,0.085 0.128,0.116 0.241,0.08 0.259,-0.088 0.389,-0.13 0.648,-0.214 0.987,1.957 1.481,2.937 2.468,4.894 C -4.841,1.5 -5.004,1.634 -5.052,1.675 -5.13,1.742 -5.155,1.826 -5.11,1.911 -5.036,2.055 -4.999,2.126 -4.924,2.269 -2.99,1.259 -2.002,0.805 0,0 Z"
         style="fill:none;stroke:#ffffff;stroke-width:0.15000001;stroke-linecap:butt;stroke-linejoin:miter;stroke-miterlimit:10;stroke-dasharray:none;stroke-opacity:1"
         id="path186"
         inkscape:connector-curvature="0" /></g><g
       id="g188"
       transform="translate(62.874,30.2461)"><path
         d="M 0,0 C 0.118,-0.034 0.217,-0.023 0.294,0.023 0.371,0.071 0.434,0.144 0.465,0.255 0.653,0.201 0.747,0.175 0.934,0.123 0.898,-0.007 0.855,-0.124 0.785,-0.225 0.715,-0.324 0.64,-0.403 0.548,-0.467 0.455,-0.531 0.345,-0.579 0.233,-0.598 0.121,-0.616 -0.003,-0.601 -0.142,-0.56 c -0.119,0.036 -0.22,0.095 -0.308,0.163 -0.087,0.065 -0.172,0.141 -0.256,0.216 -0.095,0.086 -0.142,0.129 -0.236,0.214 -0.067,0.062 -0.146,0.116 -0.224,0.142 -0.118,0.037 -0.208,0.025 -0.287,-0.02 -0.079,-0.046 -0.135,-0.118 -0.171,-0.227 -0.196,0.063 -0.295,0.094 -0.491,0.161 0.043,0.128 0.106,0.249 0.18,0.345 0.076,0.096 0.158,0.18 0.25,0.231 0.092,0.051 0.203,0.094 0.314,0.107 C -1.26,0.788 -1.128,0.766 -1.002,0.727 -0.886,0.688 -0.788,0.629 -0.703,0.562 -0.617,0.495 -0.534,0.42 -0.45,0.344 -0.367,0.269 -0.293,0.196 -0.226,0.136 -0.158,0.076 -0.076,0.031 0.003,0.008 0.001,0.005 0.001,0.003 0,0 m -0.326,-6.597 c 0.013,0.137 0.057,0.304 0.101,0.471 0.429,1.609 0.642,2.416 1.071,4.025 C 0.463,-1.938 0.253,-1.83 0.195,-1.803 0.1,-1.759 0.064,-1.687 0.09,-1.594 l 0.115,0.406 C 0.534,-1.281 0.698,-1.326 1.028,-1.414 1.366,-1.503 1.535,-1.547 1.874,-1.631 2.168,-1.704 2.315,-1.74 2.611,-1.81 2.572,-1.975 2.553,-2.057 2.515,-2.22 2.493,-2.313 2.429,-2.358 2.322,-2.353 2.074,-2.341 1.95,-2.334 1.702,-2.32 1.106,-4.716 0.808,-5.914 0.212,-8.311 c -0.218,0.056 -0.327,0.082 -0.544,0.139 -0.159,0.041 -0.272,0.12 -0.355,0.262 -1.341,2.501 -1.925,3.77 -2.919,6.319 -0.034,-0.161 -0.082,-0.296 -0.126,-0.425 -0.558,-1.586 -0.837,-2.379 -1.395,-3.963 0.42,-0.209 0.648,-0.335 0.7,-0.364 0.104,-0.055 0.141,-0.13 0.111,-0.219 -0.053,-0.157 -0.079,-0.235 -0.131,-0.392 -1.062,0.354 -1.59,0.545 -2.638,0.949 l 0.148,0.386 c 0.035,0.089 0.1,0.126 0.215,0.101 0.27,-0.052 0.405,-0.08 0.675,-0.129 0.759,2.052 1.139,3.079 1.898,5.129 -0.298,0.173 -0.484,0.29 -0.536,0.327 -0.082,0.056 -0.107,0.131 -0.072,0.222 0.059,0.155 0.089,0.232 0.148,0.385 0.478,-0.185 0.717,-0.272 1.197,-0.445 0.08,-0.03 0.136,-0.059 0.168,-0.091 0.034,-0.032 0.067,-0.095 0.107,-0.17 0.954,-2.533 1.517,-3.797 2.816,-6.286 z"
         style="fill:#67c534;fill-opacity:1;fill-rule:nonzero;stroke:none"
         id="path190"
         inkscape:connector-curvature="0" /></g><g
       id="g192"
       transform="translate(62.874,30.2461)"><path
         d="M 0,0 C 0.118,-0.034 0.217,-0.023 0.294,0.023 0.371,0.071 0.434,0.144 0.465,0.255 0.653,0.201 0.747,0.175 0.934,0.123 0.898,-0.007 0.855,-0.124 0.785,-0.225 0.715,-0.324 0.64,-0.403 0.548,-0.467 0.455,-0.531 0.345,-0.579 0.233,-0.598 0.121,-0.616 -0.003,-0.601 -0.142,-0.56 c -0.119,0.036 -0.22,0.095 -0.308,0.163 -0.087,0.065 -0.172,0.141 -0.256,0.216 -0.095,0.086 -0.142,0.129 -0.236,0.214 -0.067,0.062 -0.146,0.116 -0.224,0.142 -0.118,0.037 -0.208,0.025 -0.287,-0.02 -0.079,-0.046 -0.135,-0.118 -0.171,-0.227 -0.196,0.063 -0.295,0.094 -0.491,0.161 0.043,0.128 0.106,0.249 0.18,0.345 0.076,0.096 0.158,0.18 0.25,0.231 0.092,0.051 0.203,0.094 0.314,0.107 C -1.26,0.788 -1.128,0.766 -1.002,0.727 -0.886,0.688 -0.788,0.629 -0.703,0.562 -0.617,0.495 -0.534,0.42 -0.45,0.344 -0.367,0.269 -0.293,0.196 -0.226,0.136 -0.158,0.076 -0.076,0.031 0.003,0.008 0.001,0.005 0.001,0.003 0,0 Z m -0.326,-6.597 c 0.013,0.137 0.057,0.304 0.101,0.471 0.429,1.609 0.642,2.416 1.071,4.025 C 0.463,-1.938 0.253,-1.83 0.195,-1.803 0.1,-1.759 0.064,-1.687 0.09,-1.594 l 0.115,0.406 C 0.534,-1.281 0.698,-1.326 1.028,-1.414 1.366,-1.503 1.535,-1.547 1.874,-1.631 2.168,-1.704 2.315,-1.74 2.611,-1.81 2.572,-1.975 2.553,-2.057 2.515,-2.22 2.493,-2.313 2.429,-2.358 2.322,-2.353 2.074,-2.341 1.95,-2.334 1.702,-2.32 1.106,-4.716 0.808,-5.914 0.212,-8.311 c -0.218,0.056 -0.327,0.082 -0.544,0.139 -0.159,0.041 -0.272,0.12 -0.355,0.262 -1.341,2.501 -1.925,3.77 -2.919,6.319 -0.034,-0.161 -0.082,-0.296 -0.126,-0.425 -0.558,-1.586 -0.837,-2.379 -1.395,-3.963 0.42,-0.209 0.648,-0.335 0.7,-0.364 0.104,-0.055 0.141,-0.13 0.111,-0.219 -0.053,-0.157 -0.079,-0.235 -0.131,-0.392 -1.062,0.354 -1.59,0.545 -2.638,0.949 l 0.148,0.386 c 0.035,0.089 0.1,0.126 0.215,0.101 0.27,-0.052 0.405,-0.08 0.675,-0.129 0.759,2.052 1.139,3.079 1.898,5.129 -0.298,0.173 -0.484,0.29 -0.536,0.327 -0.082,0.056 -0.107,0.131 -0.072,0.222 0.059,0.155 0.089,0.232 0.148,0.385 0.478,-0.185 0.717,-0.272 1.197,-0.445 0.08,-0.03 0.136,-0.059 0.168,-0.091 0.034,-0.032 0.067,-0.095 0.107,-0.17 0.954,-2.533 1.517,-3.797 2.816,-6.286 z"
         style="fill:none;stroke:#ffffff;stroke-width:0.15000001;stroke-linecap:butt;stroke-linejoin:miter;stroke-miterlimit:10;stroke-dasharray:none;stroke-opacity:1"
         id="path194"
         inkscape:connector-curvature="0" /></g><g
       id="g196"
       transform="translate(71.6787,23.8828)"><path
         d="M 0,0 C 0.045,0.419 0.021,0.808 -0.07,1.156 -0.161,1.504 -0.297,1.81 -0.501,2.065 -0.705,2.323 -0.956,2.528 -1.272,2.698 -1.588,2.867 -1.954,2.979 -2.347,3.04 -2.741,3.103 -3.102,3.104 -3.455,3.042 -3.809,2.978 -4.111,2.857 -4.384,2.677 -4.658,2.495 -4.904,2.25 -5.097,1.945 -5.292,1.644 -5.434,1.281 -5.52,0.868 -5.605,0.454 -5.616,0.074 -5.551,-0.282 c 0.065,-0.357 0.21,-0.669 0.412,-0.944 0.202,-0.273 0.462,-0.506 0.802,-0.694 0.34,-0.187 0.727,-0.321 1.159,-0.39 0.432,-0.067 0.842,-0.058 1.222,0.016 0.381,0.074 0.699,0.217 0.975,0.416 0.276,0.197 0.499,0.453 0.669,0.773 0.171,0.318 0.277,0.683 0.323,1.103 C 0.007,-0.001 0.004,-0.001 0,0 M 1.093,-0.108 C 1.047,-0.625 0.918,-1.076 0.687,-1.488 0.456,-1.9 0.147,-2.246 -0.238,-2.515 -0.625,-2.78 -1.066,-2.973 -1.595,-3.078 -2.124,-3.185 -2.692,-3.2 -3.291,-3.106 c -0.6,0.092 -1.137,0.284 -1.608,0.545 -0.472,0.265 -0.846,0.583 -1.133,0.957 -0.287,0.374 -0.475,0.796 -0.57,1.26 -0.093,0.463 -0.086,0.945 0.028,1.449 0.115,0.505 0.315,0.943 0.587,1.326 0.272,0.382 0.601,0.693 0.983,0.926 0.382,0.236 0.81,0.405 1.291,0.492 0.481,0.087 0.984,0.088 1.515,0.005 C -1.667,3.77 -1.189,3.615 -0.759,3.385 -0.329,3.155 0.026,2.874 0.317,2.533 0.608,2.192 0.825,1.796 0.965,1.349 1.106,0.901 1.152,0.426 1.105,-0.091 1.101,-0.099 1.098,-0.103 1.093,-0.108"
         style="fill:#67c534;fill-opacity:1;fill-rule:nonzero;stroke:none"
         id="path198"
         inkscape:connector-curvature="0" /></g><g
       id="g200"
       transform="translate(71.6787,23.8828)"><path
         d="M 0,0 C 0.045,0.419 0.021,0.808 -0.07,1.156 -0.161,1.504 -0.297,1.81 -0.501,2.065 -0.705,2.323 -0.956,2.528 -1.272,2.698 -1.588,2.867 -1.954,2.979 -2.347,3.04 -2.741,3.103 -3.102,3.104 -3.455,3.042 -3.809,2.978 -4.111,2.857 -4.384,2.677 -4.658,2.495 -4.904,2.25 -5.097,1.945 -5.292,1.644 -5.434,1.281 -5.52,0.868 -5.605,0.454 -5.616,0.074 -5.551,-0.282 c 0.065,-0.357 0.21,-0.669 0.412,-0.944 0.202,-0.273 0.462,-0.506 0.802,-0.694 0.34,-0.187 0.727,-0.321 1.159,-0.39 0.432,-0.067 0.842,-0.058 1.222,0.016 0.381,0.074 0.699,0.217 0.975,0.416 0.276,0.197 0.499,0.453 0.669,0.773 0.171,0.318 0.277,0.683 0.323,1.103 C 0.007,-0.001 0.004,-0.001 0,0 Z M 1.093,-0.108 C 1.047,-0.625 0.918,-1.076 0.687,-1.488 0.456,-1.9 0.147,-2.246 -0.238,-2.515 -0.625,-2.78 -1.066,-2.973 -1.595,-3.078 -2.124,-3.185 -2.692,-3.2 -3.291,-3.106 c -0.6,0.092 -1.137,0.284 -1.608,0.545 -0.472,0.265 -0.846,0.583 -1.133,0.957 -0.287,0.374 -0.475,0.796 -0.57,1.26 -0.093,0.463 -0.086,0.945 0.028,1.449 0.115,0.505 0.315,0.943 0.587,1.326 0.272,0.382 0.601,0.693 0.983,0.926 0.382,0.236 0.81,0.405 1.291,0.492 0.481,0.087 0.984,0.088 1.515,0.005 C -1.667,3.77 -1.189,3.615 -0.759,3.385 -0.329,3.155 0.026,2.874 0.317,2.533 0.608,2.192 0.825,1.796 0.965,1.349 1.106,0.901 1.152,0.426 1.105,-0.091 1.101,-0.099 1.098,-0.103 1.093,-0.108 Z"
         style="fill:none;stroke:#ffffff;stroke-width:0.15000001;stroke-linecap:butt;stroke-linejoin:miter;stroke-miterlimit:10;stroke-dasharray:none;stroke-opacity:1"
         id="path202"
         inkscape:connector-curvature="0" /></g><g
       id="g204"
       transform="translate(76.2568,23.7012)"><path
         d="M 0,0 C 0.307,-0.009 0.581,0.015 0.822,0.079 1.063,0.142 1.261,0.246 1.414,0.359 1.566,0.475 1.687,0.608 1.771,0.782 1.858,0.955 1.89,1.138 1.89,1.339 1.888,1.742 1.738,2.048 1.445,2.26 1.151,2.474 0.725,2.572 0.139,2.589 -0.267,2.601 -0.47,2.607 -0.875,2.627 -0.923,1.592 -0.947,1.073 -0.996,0.038 -0.593,0.02 -0.392,0.012 0.011,0 Z M 3.767,-2.946 C 3.871,-2.961 3.942,-3.025 3.945,-3.112 3.951,-3.281 3.955,-3.365 3.961,-3.534 3.878,-3.537 3.836,-3.539 3.752,-3.542 3.501,-3.55 3.376,-3.554 3.125,-3.561 2.977,-3.563 2.902,-3.564 2.753,-3.566 2.544,-3.57 2.403,-3.504 2.31,-3.371 c -0.872,0.974 -1.289,1.47 -2.092,2.473 -0.065,0.079 -0.13,0.127 -0.196,0.168 -0.065,0.041 -0.174,0.063 -0.33,0.068 -0.283,0.01 -0.424,0.016 -0.708,0.028 -0.04,-0.866 -0.06,-1.301 -0.1,-2.166 0,0 0.548,-0.121 0.638,-0.141 0.101,-0.024 0.181,-0.093 0.178,-0.18 -0.005,-0.164 -0.008,-0.247 -0.013,-0.411 -0.334,0.011 -0.501,0.016 -0.836,0.032 -0.45,0.021 -0.675,0.034 -1.125,0.062 -0.334,0.022 -0.501,0.035 -0.835,0.06 0.013,0.165 0.02,0.247 0.032,0.411 0.007,0.087 0.082,0.149 0.186,0.158 0.104,0.012 0.674,0.07 0.674,0.07 0.141,2.182 0.211,3.275 0.352,5.459 0,0 -0.504,0.132 -0.596,0.157 -0.092,0.027 -0.149,0.099 -0.143,0.185 0.013,0.167 0.02,0.251 0.033,0.42 C -2.274,3.46 -2.126,3.449 -1.83,3.431 -1.034,3.379 -0.636,3.359 0.16,3.338 0.635,3.324 1.035,3.271 1.377,3.183 1.718,3.095 1.997,2.971 2.229,2.8 2.459,2.629 2.63,2.431 2.739,2.202 2.849,1.974 2.908,1.697 2.914,1.409 2.92,1.159 2.882,0.947 2.799,0.733 2.717,0.521 2.59,0.327 2.428,0.151 2.267,-0.022 2.07,-0.168 1.828,-0.283 1.587,-0.399 1.321,-0.504 1.012,-0.559 1.144,-0.627 1.253,-0.714 1.363,-0.85 2.047,-1.667 2.4,-2.07 3.132,-2.867 c 0.069,-0.009 0.554,-0.062 0.646,-0.078 -0.005,0 -0.007,-0.001 -0.011,-0.001"
         style="fill:#67c534;fill-opacity:1;fill-rule:nonzero;stroke:none"
         id="path206"
         inkscape:connector-curvature="0" /></g><g
       id="g208"
       transform="translate(76.2568,23.7012)"><path
         d="M 0,0 C 0.307,-0.009 0.581,0.015 0.822,0.079 1.063,0.142 1.261,0.246 1.414,0.359 1.566,0.475 1.687,0.608 1.771,0.782 1.858,0.955 1.89,1.138 1.89,1.339 1.888,1.742 1.738,2.048 1.445,2.26 1.151,2.474 0.725,2.572 0.139,2.589 -0.267,2.601 -0.47,2.607 -0.875,2.627 -0.923,1.592 -0.947,1.073 -0.996,0.038 -0.593,0.02 -0.392,0.012 0.011,0 Z M 3.767,-2.946 C 3.871,-2.961 3.942,-3.025 3.945,-3.112 3.951,-3.281 3.955,-3.365 3.961,-3.534 3.878,-3.537 3.836,-3.539 3.752,-3.542 3.501,-3.55 3.376,-3.554 3.125,-3.561 2.977,-3.563 2.902,-3.564 2.753,-3.566 2.544,-3.57 2.403,-3.504 2.31,-3.371 c -0.872,0.974 -1.289,1.47 -2.092,2.473 -0.065,0.079 -0.13,0.127 -0.196,0.168 -0.065,0.041 -0.174,0.063 -0.33,0.068 -0.283,0.01 -0.424,0.016 -0.708,0.028 -0.04,-0.866 -0.06,-1.301 -0.1,-2.166 0,0 0.548,-0.121 0.638,-0.141 0.101,-0.024 0.181,-0.093 0.178,-0.18 -0.005,-0.164 -0.008,-0.247 -0.013,-0.411 -0.334,0.011 -0.501,0.016 -0.836,0.032 -0.45,0.021 -0.675,0.034 -1.125,0.062 -0.334,0.022 -0.501,0.035 -0.835,0.06 0.013,0.165 0.02,0.247 0.032,0.411 0.007,0.087 0.082,0.149 0.186,0.158 0.104,0.012 0.674,0.07 0.674,0.07 0.141,2.182 0.211,3.275 0.352,5.459 0,0 -0.504,0.132 -0.596,0.157 -0.092,0.027 -0.149,0.099 -0.143,0.185 0.013,0.167 0.02,0.251 0.033,0.42 C -2.274,3.46 -2.126,3.449 -1.83,3.431 -1.034,3.379 -0.636,3.359 0.16,3.338 0.635,3.324 1.035,3.271 1.377,3.183 1.718,3.095 1.997,2.971 2.229,2.8 2.459,2.629 2.63,2.431 2.739,2.202 2.849,1.974 2.908,1.697 2.914,1.409 2.92,1.159 2.882,0.947 2.799,0.733 2.717,0.521 2.59,0.327 2.428,0.151 2.267,-0.022 2.07,-0.168 1.828,-0.283 1.587,-0.399 1.321,-0.504 1.012,-0.559 1.144,-0.627 1.253,-0.714 1.363,-0.85 2.047,-1.667 2.4,-2.07 3.132,-2.867 c 0.069,-0.009 0.554,-0.062 0.646,-0.078 -0.005,0 -0.007,-0.001 -0.011,-0.001 z"
         style="fill:none;stroke:#ffffff;stroke-width:0.15000001;stroke-linecap:butt;stroke-linejoin:miter;stroke-miterlimit:10;stroke-dasharray:none;stroke-opacity:1"
         id="path210"
         inkscape:connector-curvature="0" /></g><g
       id="g212"
       transform="translate(86.4053,27.7383)"><path
         d="M 0,0 C 0.572,0.09 1.36,0.056 2.354,-0.078 2.396,-0.289 2.419,-0.395 2.461,-0.604 2.545,-1.026 2.587,-1.237 2.672,-1.659 2.469,-1.699 2.368,-1.719 2.165,-1.758 2.038,-1.782 1.944,-1.74 1.901,-1.631 c -0.017,0.035 -0.054,0.175 -0.12,0.416 -0.067,0.241 -0.114,0.38 -0.121,0.417 -1.639,0.167 -2.743,-0.14 -3.453,-0.998 -0.446,-0.557 -0.647,-1.24 -0.561,-2.062 0.085,-0.821 0.421,-1.463 1.022,-1.894 0.575,-0.415 1.281,-0.558 2.101,-0.433 0.478,0.075 0.826,0.17 1.06,0.289 0.342,0.173 0.654,0.389 0.902,0.669 0.06,0.061 0.099,0.098 0.165,0.112 0.068,0.011 0.139,0.006 0.191,-0.023 0.201,-0.125 0.303,-0.187 0.506,-0.31 -0.562,-0.821 -1.491,-1.349 -2.76,-1.541 -1.177,-0.179 -2.193,0.032 -2.968,0.607 -0.774,0.573 -1.202,1.389 -1.291,2.421 -0.09,1.033 0.206,1.902 0.827,2.625 0.62,0.722 1.497,1.154 2.62,1.331 C 0.013,-0.003 0.009,-0.002 0,0"
         style="fill:#67c534;fill-opacity:1;fill-rule:nonzero;stroke:none"
         id="path214"
         inkscape:connector-curvature="0" /></g><g
       id="g216"
       transform="translate(86.4053,27.7383)"><path
         d="M 0,0 C 0.572,0.09 1.36,0.056 2.354,-0.078 2.396,-0.289 2.419,-0.395 2.461,-0.604 2.545,-1.026 2.587,-1.237 2.672,-1.659 2.469,-1.699 2.368,-1.719 2.165,-1.758 2.038,-1.782 1.944,-1.74 1.901,-1.631 c -0.017,0.035 -0.054,0.175 -0.12,0.416 -0.067,0.241 -0.114,0.38 -0.121,0.417 -1.639,0.167 -2.743,-0.14 -3.453,-0.998 -0.446,-0.557 -0.647,-1.24 -0.561,-2.062 0.085,-0.821 0.421,-1.463 1.022,-1.894 0.575,-0.415 1.281,-0.558 2.101,-0.433 0.478,0.075 0.826,0.17 1.06,0.289 0.342,0.173 0.654,0.389 0.902,0.669 0.06,0.061 0.099,0.098 0.165,0.112 0.068,0.011 0.139,0.006 0.191,-0.023 0.201,-0.125 0.303,-0.187 0.506,-0.31 -0.562,-0.821 -1.491,-1.349 -2.76,-1.541 -1.177,-0.179 -2.193,0.032 -2.968,0.607 -0.774,0.573 -1.202,1.389 -1.291,2.421 -0.09,1.033 0.206,1.902 0.827,2.625 0.62,0.722 1.497,1.154 2.62,1.331 C 0.013,-0.003 0.009,-0.002 0,0 Z"
         style="fill:none;stroke:#ffffff;stroke-width:0.15000001;stroke-linecap:butt;stroke-linejoin:miter;stroke-miterlimit:10;stroke-dasharray:none;stroke-opacity:1"
         id="path218"
         inkscape:connector-curvature="0" /></g><g
       id="g220"
       transform="translate(92.752,25.5889)"><path
         d="M 0,0 C 0.299,0.079 0.558,0.18 0.771,0.31 0.988,0.437 1.149,0.596 1.266,0.749 1.381,0.9 1.458,1.063 1.492,1.256 1.527,1.446 1.506,1.63 1.448,1.823 1.332,2.209 1.101,2.459 0.757,2.579 0.412,2.7 -0.029,2.674 -0.599,2.521 -0.994,2.418 -1.192,2.368 -1.59,2.271 -1.343,1.264 -1.22,0.76 -0.973,-0.247 -0.579,-0.15 -0.382,-0.102 0.011,0.003 0.007,0.002 0.004,0.001 0,0 M 4.48,-1.749 C 4.587,-1.733 4.675,-1.774 4.702,-1.856 4.756,-2.018 4.783,-2.097 4.837,-2.257 4.757,-2.284 4.716,-2.297 4.636,-2.324 4.395,-2.404 4.274,-2.443 4.032,-2.521 3.89,-2.566 3.818,-2.59 3.675,-2.635 3.474,-2.697 3.318,-2.675 3.188,-2.574 2.069,-1.89 1.524,-1.533 0.465,-0.8 0.38,-0.742 0.303,-0.714 0.229,-0.694 c -0.075,0.021 -0.187,0.009 -0.339,-0.03 -0.277,-0.07 -0.415,-0.105 -0.692,-0.172 0.206,-0.843 0.31,-1.265 0.517,-2.107 0,0 0.563,0.04 0.657,0.046 0.104,0.006 0.2,-0.037 0.223,-0.121 0.041,-0.16 0.061,-0.239 0.103,-0.401 -0.326,-0.084 -0.49,-0.125 -0.817,-0.206 -0.442,-0.106 -0.661,-0.159 -1.103,-0.258 -0.328,-0.075 -0.493,-0.11 -0.821,-0.179 -0.034,0.161 -0.052,0.241 -0.086,0.403 -0.017,0.085 0.037,0.164 0.135,0.204 0.097,0.04 0.63,0.257 0.63,0.257 L -2.57,2.079 c 0,0 -0.524,-0.016 -0.619,-0.018 -0.097,-10e-4 -0.173,0.052 -0.191,0.136 -0.035,0.165 -0.053,0.248 -0.087,0.412 0.292,0.064 0.438,0.095 0.73,0.162 0.781,0.175 1.171,0.271 1.946,0.476 C -0.328,3.369 0.074,3.432 0.43,3.443 0.784,3.457 1.091,3.419 1.362,3.321 1.635,3.224 1.855,3.082 2.026,2.895 2.197,2.707 2.334,2.458 2.422,2.184 2.497,1.945 2.521,1.729 2.501,1.504 2.48,1.276 2.413,1.054 2.306,0.84 2.198,0.625 2.05,0.43 1.849,0.25 1.646,0.068 1.42,-0.106 1.136,-0.247 c 0.147,-0.028 0.278,-0.08 0.423,-0.179 0.893,-0.59 1.35,-0.875 2.285,-1.429 0.069,0.011 0.552,0.099 0.648,0.11 C 4.487,-1.746 4.485,-1.747 4.48,-1.749"
         style="fill:#67c534;fill-opacity:1;fill-rule:nonzero;stroke:none"
         id="path222"
         inkscape:connector-curvature="0" /></g><g
       id="g224"
       transform="translate(92.752,25.5889)"><path
         d="M 0,0 C 0.299,0.079 0.558,0.18 0.771,0.31 0.988,0.437 1.149,0.596 1.266,0.749 1.381,0.9 1.458,1.063 1.492,1.256 1.527,1.446 1.506,1.63 1.448,1.823 1.332,2.209 1.101,2.459 0.757,2.579 0.412,2.7 -0.029,2.674 -0.599,2.521 -0.994,2.418 -1.192,2.368 -1.59,2.271 -1.343,1.264 -1.22,0.76 -0.973,-0.247 -0.579,-0.15 -0.382,-0.102 0.011,0.003 0.007,0.002 0.004,0.001 0,0 Z M 4.48,-1.749 C 4.587,-1.733 4.675,-1.774 4.702,-1.856 4.756,-2.018 4.783,-2.097 4.837,-2.257 4.757,-2.284 4.716,-2.297 4.636,-2.324 4.395,-2.404 4.274,-2.443 4.032,-2.521 3.89,-2.566 3.818,-2.59 3.675,-2.635 3.474,-2.697 3.318,-2.675 3.188,-2.574 2.069,-1.89 1.524,-1.533 0.465,-0.8 0.38,-0.742 0.303,-0.714 0.229,-0.694 c -0.075,0.021 -0.187,0.009 -0.339,-0.03 -0.277,-0.07 -0.415,-0.105 -0.692,-0.172 0.206,-0.843 0.31,-1.265 0.517,-2.107 0,0 0.563,0.04 0.657,0.046 0.104,0.006 0.2,-0.037 0.223,-0.121 0.041,-0.16 0.061,-0.239 0.103,-0.401 -0.326,-0.084 -0.49,-0.125 -0.817,-0.206 -0.442,-0.106 -0.661,-0.159 -1.103,-0.258 -0.328,-0.075 -0.493,-0.11 -0.821,-0.179 -0.034,0.161 -0.052,0.241 -0.086,0.403 -0.017,0.085 0.037,0.164 0.135,0.204 0.097,0.04 0.63,0.257 0.63,0.257 L -2.57,2.079 c 0,0 -0.524,-0.016 -0.619,-0.018 -0.097,-10e-4 -0.173,0.052 -0.191,0.136 -0.035,0.165 -0.053,0.248 -0.087,0.412 0.292,0.064 0.438,0.095 0.73,0.162 0.781,0.175 1.171,0.271 1.946,0.476 C -0.328,3.369 0.074,3.432 0.43,3.443 0.784,3.457 1.091,3.419 1.362,3.321 1.635,3.224 1.855,3.082 2.026,2.895 2.197,2.707 2.334,2.458 2.422,2.184 2.497,1.945 2.521,1.729 2.501,1.504 2.48,1.276 2.413,1.054 2.306,0.84 2.198,0.625 2.05,0.43 1.849,0.25 1.646,0.068 1.42,-0.106 1.136,-0.247 c 0.147,-0.028 0.278,-0.08 0.423,-0.179 0.893,-0.59 1.35,-0.875 2.285,-1.429 0.069,0.011 0.552,0.099 0.648,0.11 C 4.487,-1.746 4.485,-1.747 4.48,-1.749 Z"
         style="fill:none;stroke:#ffffff;stroke-width:0.15000001;stroke-linecap:butt;stroke-linejoin:miter;stroke-miterlimit:10;stroke-dasharray:none;stroke-opacity:1"
         id="path226"
         inkscape:connector-curvature="0" /></g><g
       id="g228"
       transform="translate(102.4844,32.7959)"><path
         d="m 0,0 c 0.074,-0.147 0.111,-0.223 0.186,-0.369 0.043,-0.086 0.015,-0.175 -0.073,-0.239 -0.199,-0.147 -0.3,-0.22 -0.5,-0.366 C 0.22,-2.228 0.521,-2.854 1.13,-4.108 1.479,-4.835 1.499,-5.561 1.184,-6.272 0.858,-7.006 0.201,-7.6 -0.75,-7.996 -1.691,-8.39 -2.564,-8.437 -3.316,-8.152 c -0.737,0.278 -1.234,0.798 -1.503,1.558 -0.466,1.313 -0.7,1.97 -1.164,3.282 -0.34,-0.058 -0.546,-0.084 -0.609,-0.089 -0.101,-0.01 -0.179,0.031 -0.208,0.122 -0.053,0.153 -0.078,0.229 -0.13,0.382 0.993,0.336 1.488,0.518 2.467,0.904 0.06,-0.152 0.089,-0.226 0.149,-0.375 0.035,-0.089 0,-0.176 -0.091,-0.234 -0.046,-0.026 -0.241,-0.144 -0.616,-0.347 0.488,-1.301 0.733,-1.951 1.221,-3.252 0.206,-0.548 0.549,-0.933 1.039,-1.124 0.497,-0.196 1.078,-0.166 1.704,0.096 0.625,0.261 1.058,0.651 1.268,1.146 0.204,0.479 0.183,0.989 -0.064,1.521 -0.583,1.266 -0.875,1.899 -1.459,3.165 -0.4,-0.124 -0.63,-0.182 -0.683,-0.196 -0.104,-0.026 -0.192,0.011 -0.23,0.098 -0.065,0.146 -0.097,0.222 -0.163,0.369 0.317,0.14 0.474,0.211 0.788,0.355 0.369,0.17 0.552,0.256 0.917,0.435 C -0.409,-0.204 -0.272,-0.137 0,0"
         style="fill:#67c534;fill-opacity:1;fill-rule:nonzero;stroke:none"
         id="path230"
         inkscape:connector-curvature="0" /></g><g
       id="g232"
       transform="translate(102.4844,32.7959)"><path
         d="m 0,0 c 0.074,-0.147 0.111,-0.223 0.186,-0.369 0.043,-0.086 0.015,-0.175 -0.073,-0.239 -0.199,-0.147 -0.3,-0.22 -0.5,-0.366 C 0.22,-2.228 0.521,-2.854 1.13,-4.108 1.479,-4.835 1.499,-5.561 1.184,-6.272 0.858,-7.006 0.201,-7.6 -0.75,-7.996 -1.691,-8.39 -2.564,-8.437 -3.316,-8.152 c -0.737,0.278 -1.234,0.798 -1.503,1.558 -0.466,1.313 -0.7,1.97 -1.164,3.282 -0.34,-0.058 -0.546,-0.084 -0.609,-0.089 -0.101,-0.01 -0.179,0.031 -0.208,0.122 -0.053,0.153 -0.078,0.229 -0.13,0.382 0.993,0.336 1.488,0.518 2.467,0.904 0.06,-0.152 0.089,-0.226 0.149,-0.375 0.035,-0.089 0,-0.176 -0.091,-0.234 -0.046,-0.026 -0.241,-0.144 -0.616,-0.347 0.488,-1.301 0.733,-1.951 1.221,-3.252 0.206,-0.548 0.549,-0.933 1.039,-1.124 0.497,-0.196 1.078,-0.166 1.704,0.096 0.625,0.261 1.058,0.651 1.268,1.146 0.204,0.479 0.183,0.989 -0.064,1.521 -0.583,1.266 -0.875,1.899 -1.459,3.165 -0.4,-0.124 -0.63,-0.182 -0.683,-0.196 -0.104,-0.026 -0.192,0.011 -0.23,0.098 -0.065,0.146 -0.097,0.222 -0.163,0.369 0.317,0.14 0.474,0.211 0.788,0.355 0.369,0.17 0.552,0.256 0.917,0.435 C -0.409,-0.204 -0.272,-0.137 0,0 Z"
         style="fill:none;stroke:#ffffff;stroke-width:0.15000001;stroke-linecap:butt;stroke-linejoin:miter;stroke-miterlimit:10;stroke-dasharray:none;stroke-opacity:1"
         id="path234"
         inkscape:connector-curvature="0" /></g><g
       id="g236"
       transform="translate(107.0508,28.2852)"><path
         d="M 0,0 C 1.384,0.753 2.065,1.153 3.41,2.002 3.204,2.417 3.085,2.648 3.073,2.688 3.032,2.798 3.081,2.874 3.2,2.95 3.395,3.074 3.491,3.137 3.685,3.263 3.884,2.957 3.982,2.805 4.183,2.499 L 4.598,1.864 C 2.424,0.445 1.308,-0.202 -0.968,-1.37 c -0.067,0.13 -0.1,0.194 -0.167,0.324 -0.044,0.086 -0.052,0.179 -0.028,0.288 0.699,2.831 0.958,4.246 1.302,7.042 C -1.048,5.549 -1.649,5.202 -2.868,4.548 -2.688,4.122 -2.576,3.888 -2.567,3.85 -2.532,3.737 -2.587,3.653 -2.703,3.593 -2.889,3.494 -2.982,3.445 -3.169,3.349 -3.338,3.676 -3.423,3.84 -3.592,4.167 -3.729,4.433 -3.798,4.564 -3.937,4.832 -1.962,5.854 -0.993,6.418 0.895,7.653 0.97,7.538 1.008,7.479 1.084,7.364 1.146,7.269 1.172,7.171 1.16,7.049 0.873,4.253 0.643,2.837 0,0"
         style="fill:#67c534;fill-opacity:1;fill-rule:nonzero;stroke:none"
         id="path238"
         inkscape:connector-curvature="0" /></g><g
       id="g240"
       transform="translate(107.0508,28.2852)"><path
         d="M 0,0 C 1.384,0.753 2.065,1.153 3.41,2.002 3.204,2.417 3.085,2.648 3.073,2.688 3.032,2.798 3.081,2.874 3.2,2.95 3.395,3.074 3.491,3.137 3.685,3.263 3.884,2.957 3.982,2.805 4.183,2.499 L 4.598,1.864 C 2.424,0.445 1.308,-0.202 -0.968,-1.37 c -0.067,0.13 -0.1,0.194 -0.167,0.324 -0.044,0.086 -0.052,0.179 -0.028,0.288 0.699,2.831 0.958,4.246 1.302,7.042 C -1.048,5.549 -1.649,5.202 -2.868,4.548 -2.688,4.122 -2.576,3.888 -2.567,3.85 -2.532,3.737 -2.587,3.653 -2.703,3.593 -2.889,3.494 -2.982,3.445 -3.169,3.349 -3.338,3.676 -3.423,3.84 -3.592,4.167 -3.729,4.433 -3.798,4.564 -3.937,4.832 -1.962,5.854 -0.993,6.418 0.895,7.653 0.97,7.538 1.008,7.479 1.084,7.364 1.146,7.269 1.172,7.171 1.16,7.049 0.873,4.253 0.643,2.837 0,0 Z"
         style="fill:none;stroke:#ffffff;stroke-width:0.15000001;stroke-linecap:butt;stroke-linejoin:miter;stroke-miterlimit:10;stroke-dasharray:none;stroke-opacity:1"
         id="path242"
         inkscape:connector-curvature="0" /></g></g></g><text
   y="-11.626763"
   x="55.339401"
   transform="scale(1,-1)"
   style="font-variant:normal;font-weight:normal;font-stretch:normal;font-size:7.93970013px;font-family:Aleo;-inkscape-font-specification:Aleo-Regular;writing-mode:lr-tb;fill:#67c530;fill-opacity:1;fill-rule:nonzero;stroke:none"
   id="text246"><tspan
     x="55.339401 57.761009 62.72332 65.605431 69.511765 72.941711 77.908791 81.981857 85.578545 87.873116 92.065277 97.027588 101.10065"
     y="-11.626763"
     sodipodi:role="line"
     id="tspan244">Internacional</tspan></text>

</g>

</g>
</g></svg>